<?xml version="1.0" encoding="utf-8"?>
<!-- Generator: Adobe Illustrator 15.0.2, SVG Export Plug-In . SVG Version: 6.00 Build 0)  -->
<!DOCTYPE svg PUBLIC "-//W3C//DTD SVG 1.1//EN" "http://www.w3.org/Graphics/SVG/1.1/DTD/svg11.dtd">
<svg version="1.1" id="Layer_1" xmlns="http://www.w3.org/2000/svg" xmlns:xlink="http://www.w3.org/1999/xlink" x="0px" y="0px"
	 width="512px" height="512px" viewBox="0 0 512 512" enable-background="new 0 0 512 512" xml:space="preserve">
<path d="M-1971.598-215.677c3.428,0.345,7.017,0.668,10.73,0.971v10.041c0,2.972-2.436,5.416-5.416,5.416h-26.989
	c-2.981,0-5.42,2.256-5.42,4.996c0,2.755,2.439,5.007,5.42,5.007h74.806c2.98,0,5.418-2.252,5.418-5.007
	c0-2.74-2.438-4.996-5.418-4.996h-26.992c-2.979,0-5.414-2.444-5.414-5.416v-9.297c22.144,1.492,48.157,2.291,75.386,2.291
	c27.221,0,53.232-0.799,75.374-2.291v9.296c0,2.972-2.435,5.416-5.417,5.416h-26.989c-2.979,0-5.423,2.256-5.423,4.996
	c0,2.755,2.444,5.007,5.423,5.007h74.801c2.985,0,5.423-2.252,5.423-5.007c0-2.74-2.438-4.996-5.423-4.996h-26.986
	c-2.981,0-5.416-2.444-5.416-5.416v-10.04c3.715-0.304,7.305-0.626,10.734-0.972c42.805-4.3,42.805-9.811,42.805-13.104v-63.181
	c0-1.928-1.564-3.49-3.487-3.49h-16.311v-12.355c0-1.928-1.565-3.491-3.488-3.491h-20.69v-19.38c0-5.878-4.32-16.864-20.432-17.417
	c-1.331-2.99-4.325-5.079-7.804-5.079h-15.056c-4.725,0-8.547,3.826-8.547,8.542c0,4.725,3.823,8.548,8.547,8.548h15.056
	c3.461,0,6.441-2.067,7.783-5.035c12.886,0.543,13.455,9.434,13.475,10.441v19.38h-22.342c-1.925,0-3.491,1.563-3.491,3.491v12.355
	H-1847v-12.355c0-1.928-1.561-3.491-3.49-3.491h-21.514v-24.625c3.225-1.361,5.488-4.55,5.488-8.273c0-4.961-4.02-8.978-8.977-8.978
	c-4.961,0-8.98,4.017-8.98,8.978c0,3.724,2.264,6.913,5.492,8.274v24.625h-21.517c-1.926,0-3.489,1.563-3.489,3.491v12.355h-33.631
	v-12.355c0-1.928-1.563-3.491-3.489-3.491h-22.893v-19.38c0-0.415,0.165-9.879,13.477-10.44c1.341,2.968,4.32,5.034,7.786,5.034
	h15.049c4.725,0,8.55-3.824,8.55-8.548c0-4.716-3.825-8.542-8.55-8.542h-15.049c-3.483,0-6.478,2.089-7.808,5.079
	c-16.112,0.554-20.432,11.539-20.432,17.417v19.38h-20.139c-1.926,0-3.489,1.563-3.489,3.491v12.355h-16.31
	c-1.926,0-3.489,1.562-3.489,3.49v63.181C-2014.403-225.488-2014.403-219.978-1971.598-215.677z M-1806.387-304.32h43.026v8.868
	h-43.026V-304.32z M-1897.007-304.32h43.031v8.868h-43.031V-304.32z M-1987.627-304.32h43.03v8.868h-43.03V-304.32z
	 M-2007.424-288.474h263.866v58.901c-6.137,4.681-54.168,10.927-131.929,10.927c-77.772,0-125.806-6.246-131.937-10.927V-288.474z
	 M-1624.837-532h-494.323c-4.874,0-8.84,3.964-8.84,8.843V-28.84c0,4.872,3.966,8.84,8.84,8.84h494.323
	c4.869,0,8.837-3.968,8.837-8.84v-494.317C-1616-528.036-1619.968-532-1624.837-532z M-1625.306-29.306h-493.389v-493.391h493.389
	V-29.306z"/>
<path d="M-1418.165-157.58c19.617,0,40.731-10.86,40.731-34.721v-117.511l-0.038-0.562c-0.126-1.043-0.05-2.7,0.191-3.541
	c9.126-2.039,92.935-20.313,93.99-20.612c0,0.002,0.113,0.205,0.144,0.412l0.041,84.81c-0.518,2.165-3.094,7.593-15.754,7.593
	c-19.472,0-38.695,2.156-41.331,27.922c-0.811,7.924,1.389,15.028,6.368,20.54c8.323,9.216,22.883,12.5,33.732,12.5
	c12.261,0,28.635-4.737,36.376-17.858l1.847-0.005v-3.475c2.896-5.906,3.019-14.473,3.022-15.51l-0.019-159.575
	c0.453-4.982-0.905-14.095-8.844-16.63c-2.33-0.756-4.989-0.829-7.976-0.197c-12.095,2.564-110.099,22.748-115.732,23.907
	c-3.695,0.442-9.972,4.087-9.972,15.399c0,10.49,0.314,74.937,0.314,74.946l0.003,52.996c-0.06,0.835-1.037,8.203-15.868,8.203
	c-19.466,0-38.692,2.152-41.331,27.929c-0.811,7.923,1.396,15.027,6.372,20.543C-1443.573-160.864-1429.016-157.58-1418.165-157.58z
	 M-1449.011-189.675c1.712-16.745,11.277-19.571,32.072-19.571c19.572,0,25.017-11.232,25.167-17.288v-53.234
	c0,0-0.314-64.434-0.314-74.924c0-4.655,1.405-6.041,1.603-6.148l0.7-0.088c1.034-0.213,103.613-21.334,116.019-23.97
	c0.713-0.147,1.361-0.223,1.923-0.223c0.49,0,0.917,0.06,1.282,0.176c2.416,0.773,2.528,5.683,2.409,7.354v159.976
	c-0.006,2.136-0.39,6.708-1.451,9.915l-1.059,2.298l-0.509,0.84v0.214c-5.445,10.531-18.869,14.296-28.921,14.296
	c-8.445,0-20.537-2.471-26.826-9.436c-3.252-3.604-4.571-7.967-4.015-13.352c1.709-16.742,11.275-19.569,32.073-19.569
	c20.633,0,24.341-11.951,24.988-15.614l0.072-51.465h0.104l-0.161-35.025c-0.458-5.577-4.218-9.18-9.587-9.18
	c-0.978,0-1.69,0.124-2.014,0.188c-3.698,0.808-90.603,19.754-94.591,20.678c-5.858,1.351-7.263,7.926-6.691,13.279V-192.3
	c0,20.063-19.757,25.416-31.425,25.416c-8.448,0-20.539-2.466-26.826-9.43C-1448.248-179.923-1449.561-184.292-1449.011-189.675z
	 M-1092.84-532h-494.319c-4.869,0-8.84,3.963-8.84,8.843V-28.84c0,4.874,3.971,8.84,8.84,8.84h494.319c4.869,0,8.84-3.966,8.84-8.84
	v-494.316C-1084-528.037-1087.971-532-1092.84-532z M-1093.305-29.305h-493.39v-493.393h493.39V-29.305z"/>
<path d="M-866.168-196.514c0.884,0.983,2.148,1.544,3.458,1.544c0.15,0,0.301-0.032,0.452-0.046c0.15,0.015,0.301,0.046,0.451,0.046
	c1.314,0,2.578-0.562,3.462-1.546c75.98-35.731,64.303-136.215,64.174-137.241c-0.127-1.021-0.591-1.976-1.327-2.707
	c-21.104-21.108-59.25-23.363-66.128-23.597c-0.083-0.005-0.161-0.025-0.244-0.026c-0.069,0.001-0.205,0.003-0.39,0.007
	c-0.186-0.004-0.321-0.006-0.391-0.007c-0.069,0.002-0.135,0.02-0.204,0.025c-6.767,0.227-45.016,2.45-66.161,23.598
	c-0.735,0.73-1.198,1.686-1.327,2.707C-930.472-332.731-942.153-232.243-866.168-196.514z M-921.27-331.011
	c19.133-17.781,54.321-19.595,59.012-19.758c4.694,0.163,39.883,1.977,59.02,19.758c1.112,12.525,5.846,95.499-59.02,126.061
	C-927.022-235.467-922.369-318.48-921.27-331.011z M-862.715-229.214c0.225,0,0.439-0.035,0.655-0.066
	c0.215,0.031,0.43,0.066,0.654,0.066c27.748,0,36.934-41.304,37.315-43.062c0.391-1.828-0.346-3.707-1.871-4.784
	c-1.537-1.078-3.553-1.136-5.14-0.142c-10.653,6.633-28.184,6.495-30.71,6.442c-0.063,0.001-0.123-0.012-0.186-0.008
	c-0.005,0-0.03,0.001-0.062,0.002c-0.035-0.001-0.061-0.002-0.066-0.002c-0.052-0.003-0.102,0.009-0.154,0.007
	c-2.416,0.057-20,0.247-30.746-6.441c-1.586-0.999-3.604-0.939-5.133,0.142c-1.527,1.077-2.264,2.956-1.873,4.784
	C-899.649-270.518-890.454-229.214-862.715-229.214z M-862.059-261.454c2.514,0.075,14.662,0.172,26.052-3.448
	c-3.849,10.585-11.862,26.383-25.399,26.383c-0.224,0-0.438,0.035-0.654,0.066c-0.216-0.031-0.43-0.066-0.655-0.066
	c-13.534,0-21.551-15.798-25.4-26.383C-876.725-261.282-864.573-261.379-862.059-261.454z M-870.365-300.076
	c-16.837-20.833-35.39,3.135-35.39,3.135C-878.362-293.795-870.365-300.076-870.365-300.076z M-817.205-296.94
	c0,0-18.553-23.969-35.389-3.135C-852.593-300.076-844.607-293.795-817.205-296.94z M-753.549-233.043
	c-0.166-0.018-0.328-0.05-0.499-0.05c-22.106,0-29.458,28.542-29.757,29.751c-0.445,1.788,0.209,3.669,1.663,4.797
	c0.831,0.647,1.835,0.979,2.853,0.979c0.754,0,1.508-0.181,2.203-0.555c8.266-4.448,22.148-4.224,23.456-4.196
	c0.019-0.001,0.036,0.003,0.055,0.002c0.003,0,0.019,0,0.026,0c0.009,0,0.025,0,0.027,0c0.02,0.001,0.037-0.003,0.057-0.002
	c1.322-0.027,15.191-0.25,23.455,4.197c0.693,0.374,1.447,0.555,2.201,0.555c1.019,0,2.022-0.332,2.854-0.979
	c1.454-1.127,2.107-3.009,1.663-4.797c-0.3-1.209-7.649-29.751-29.757-29.751C-753.221-233.094-753.383-233.062-753.549-233.043z
	 M-735.722-209.903c-8.153-1.837-16.148-1.762-17.858-1.717c-1.838-0.041-9.738-0.094-17.795,1.717
	c3.186-6.382,8.75-13.887,17.327-13.887c0.171,0,0.333-0.032,0.499-0.05c0.166,0.018,0.328,0.05,0.5,0.05
	C-744.471-223.79-738.906-216.285-735.722-209.903z M-797.242-256.671c27.394,3.143,35.391-3.135,35.391-3.135
	C-778.689-280.639-797.242-256.671-797.242-256.671z M-708.691-256.671c0,0-18.553-23.967-35.391-3.135
	C-744.082-259.807-736.094-253.528-708.691-256.671z M-783.258-306.016c0.398,0,0.803-0.05,1.207-0.16
	c13.514-3.625,25.685-4.233,28.303-4.324c4.686,0.163,39.882,1.975,59.021,19.759c1.113,12.522,5.846,95.476-58.99,126.047
	c-25.295-11.897-42.879-32.843-52.248-62.355c-0.777-2.451-3.399-3.808-5.843-3.028c-2.444,0.779-3.796,3.396-3.025,5.843
	c10.2,32.125,29.438,54.992,57.204,68.017c0.883,0.966,2.135,1.518,3.432,1.518c0.15,0,0.301-0.032,0.451-0.046
	c0.151,0.015,0.303,0.046,0.452,0.046c1.313,0,2.577-0.562,3.462-1.547c75.98-35.732,64.304-136.215,64.174-137.239
	c-0.128-1.023-0.592-1.978-1.326-2.707c-21.197-21.204-59.588-23.384-66.219-23.602c-0.055-0.005-0.105-0.02-0.158-0.023
	c-0.045,0-0.172,0.003-0.361,0.008c-0.199-0.005-0.344-0.007-0.416-0.008c-0.113,0-0.221,0.025-0.332,0.033
	c-3.691,0.141-16.033,0.877-29.988,4.623c-2.484,0.663-3.957,3.217-3.289,5.696C-787.193-307.383-785.312-306.016-783.258-306.016z
	 M-560.84-532h-494.32c-4.869,0-8.84,3.965-8.84,8.845v494.313c0,4.874,3.971,8.842,8.84,8.842h494.32
	c4.869,0,8.84-3.968,8.84-8.842v-494.313C-552-528.035-555.971-532-560.84-532z M-561.305-29.305h-493.392v-493.393h493.392V-29.305
	z"/>
<path d="M-28.842-532h-494.316c-4.873,0-8.842,3.966-8.842,8.847v494.312c0,4.875,3.969,8.842,8.842,8.842h494.316
	C-23.971-20-20-23.966-20-28.842v-494.312C-20-528.034-23.971-532-28.842-532z M-29.305-29.305h-493.393v-493.391h493.393V-29.305z
	 M-388.436-188.375c0,2.573,2.084,4.651,4.652,4.651h135.344c2.566,0,4.652-2.078,4.652-4.651v-34.517
	c0-0.682-0.162-1.335-0.449-1.927c-0.404-1.899-1.07-3.806-1.998-5.706c-3.061-6.252-7.93-10.876-9.873-12.566
	c-7.16-6.252-16.701-9.618-25.115-12.588l-1.969-0.696c-3.504-1.244-6.697-3.153-9.014-5.396c-0.496-0.475-0.945-0.957-1.344-1.438
	c-0.457-4.296-0.465-8.387-0.02-12.675c3.719-4.511,6.07-10.176,6.68-16.054c4.076-2.328,6.885-6.569,7.555-11.488
	c0.541-3.987-0.459-7.848-2.705-10.696l0.566-3.699c0.115-0.5,0.207-0.947,0.289-1.398l0.08-0.476
	c0.463-1.695,0.928-3.526,1.182-5.416c0.041-0.284,0.051-0.567,0.039-0.845c1.771-12.293-0.111-21.785-5.586-28.226
	c-4.742-5.579-10.881-7.188-14.09-7.656c-4.428-4.219-10.639-6.44-18.086-6.44c-9.441,0-18,3.487-18.359,3.635
	c-0.25,0.104-0.484,0.226-0.715,0.371c-20.297,12.859-18.17,36.6-13.555,49.61c-1.795,2.586-3.271,6.55-2.545,11.761
	c0.754,5.38,4.07,8.891,7.074,10.826c0.881,8.36,4.656,13.858,6.865,16.424l0.002,11.883c-0.229,1.745-6.164,6.011-13.229,8.748
	c-21.391,5.818-30.352,16.244-34.102,23.978c-1.738,3.58-2.477,7.114-2.229,10.149V-188.375z M-377.838-226.982
	c4.188-8.637,14.004-15.246,28.391-19.118c0.15-0.042,0.301-0.092,0.445-0.145c4.434-1.685,18.953-7.906,19.424-17.277v-13.983
	c0-1.354-0.586-2.644-1.613-3.525c-0.051-0.041-4.826-4.386-5.375-12.72v-1.229c0-1.985-1.26-3.751-3.137-4.396
	c-0.031-0.014-3.404-1.268-3.9-4.816c-0.555-3.954,1.299-5.597,1.391-5.682c1.797-1.269,2.461-3.632,1.59-5.652
	c-0.484-1.128-11.568-27.526,8.518-40.65c1.539-0.583,7.863-2.798,14.461-2.798c5.551,0,9.725,1.568,12.408,4.656
	c0.883,1.013,2.164,1.599,3.51,1.599c0.053,0,5.396,0.126,9.166,4.565c3.771,4.43,4.908,12.043,3.289,22.01
	c-0.047,0.305-0.062,0.6-0.053,0.891c-0.201,1.044-0.492,2.148-0.811,3.336l-0.195,0.985c-0.053,0.295-0.104,0.586-0.264,1.294
	l-1.002,6.424c-0.26,1.681,0.615,3.506,1.967,4.542c0.904,0.822,1.305,2.312,1.078,3.99c-0.23,1.648-1.176,3.765-3.4,4.895
	c-0.234,0.125-0.568,0.297-0.682,0.324c-2.014,0.562-3.408,2.394-3.408,4.483c0,5.083-2.018,10.311-5.402,13.971
	c-0.658,0.713-1.076,1.618-1.197,2.58c-0.748,5.997-0.748,11.586,0,17.583c0.098,0.743,0.363,1.451,0.791,2.07
	c0.895,1.291,1.977,2.544,3.191,3.707c4.145,4.015,9.004,6.273,12.354,7.458l1.984,0.705c8.006,2.823,16.273,5.741,22.1,10.826
	c3.17,2.757,6.025,6.363,7.631,9.65c0.709,1.443,1.172,2.872,1.379,4.224c0.025,0.192,0.064,0.374,0.121,0.556v28.62h-126.039
	l-0.016-28.22C-379.281-223.011-378.854-224.89-377.838-226.982z M-265.906-295.223c0.703,5.053,3.789,8.377,6.619,10.235
	c0.846,7.707,4.297,12.816,6.387,15.269l0.01,10.895c0,0-0.102,0.392-0.809,1.167c-1.727,1.899-1.59,4.843,0.312,6.57
	c1.902,1.734,4.848,1.59,6.574-0.311c2.004-2.202,3.086-4.514,3.217-7.117v-13.045c0-1.319-0.605-2.609-1.58-3.492
	c-0.182-0.168-4.455-4.106-4.945-11.685v-1.134c0-1.985-1.262-3.748-3.131-4.398c-0.029-0.008-3.01-1.167-3.441-4.243
	c-0.486-3.502,1.123-4.956,1.172-5.011c1.805-1.271,2.467-3.639,1.588-5.661c-0.111-0.253-10.77-25.335,7.803-37.53
	c2.498-0.92,17.9-6.176,24.705,1.665c0.861,0.986,2.152,1.567,3.463,1.599c0.205,0.003,5.059,0.163,8.457,4.252
	c3.387,4.075,4.393,11.057,2.908,20.189c-0.047,0.289-0.064,0.581-0.055,0.862c-0.186,0.963-0.447,1.954-0.738,3.059l-1.371,8.145
	c-0.254,1.625,0.375,3.267,1.646,4.312l0.279,0.205c0.754,0.691,1.105,2.017,0.912,3.462c-0.201,1.458-1.037,3.333-3.102,4.384
	c-0.156,0.077-0.309,0.168-0.443,0.219c-2.031,0.543-3.443,2.387-3.443,4.492c0,4.668-1.854,9.464-4.963,12.824
	c-0.66,0.714-1.08,1.618-1.197,2.581c-0.703,5.625-0.703,10.867,0,16.492c0.092,0.745,0.361,1.453,0.789,2.07
	c0.854,1.236,1.881,2.429,3.016,3.512c3.898,3.77,8.488,5.902,11.646,7.028l1.812,0.641c7.455,2.629,15.164,5.347,20.561,10.054
	c2.945,2.562,5.574,5.889,7.047,8.906c0.654,1.335,1.074,2.634,1.258,3.861c0.027,0.171,0.062,0.354,0.113,0.526v26.349h-55.418
	c-2.574,0-4.652,2.083-4.652,4.652c0,2.573,2.078,4.651,4.652,4.651h60.07c2.566,0,4.652-2.078,4.652-4.651v-32.22
	c0-0.681-0.16-1.326-0.438-1.907c-0.377-1.772-1.008-3.569-1.875-5.342c-2.871-5.878-7.461-10.236-9.295-11.837
	c-6.742-5.878-15.688-9.035-23.582-11.817l-1.787-0.633c-3.242-1.156-6.186-2.909-8.322-4.975c-0.418-0.402-0.807-0.813-1.158-1.238
	c-0.412-3.924-0.418-7.666-0.02-11.589c3.445-4.2,5.629-9.453,6.23-14.908c3.816-2.235,6.434-6.238,7.064-10.872
	c0.502-3.707-0.387-7.306-2.514-10.086l0.51-3.316c0.113-0.468,0.195-0.894,0.273-1.316l0.082-0.441
	c0.404-1.503,0.854-3.256,1.102-5.088c0.037-0.276,0.051-0.55,0.031-0.813c1.666-11.548-0.115-20.475-5.277-26.552
	c-4.439-5.217-10.166-6.771-13.242-7.232c-12.145-11.558-33.352-3.005-34.281-2.626c-0.25,0.104-0.486,0.226-0.719,0.374
	c-19.031,12.063-17.131,34.261-12.824,46.526C-265.238-303.819-266.582-300.09-265.906-295.223z"/>
<g>
	<path d="M347.526-335.87c3.632,3.635,9.525,3.635,13.157,0s3.632-9.522,0.003-13.157l-8.637-8.63
		c-3.635-3.635-9.521-3.635-13.156,0c-3.633,3.624-3.633,9.519,0,13.155L347.526-335.87z"/>
	<path d="M225.065-241.213l-9.691,24.413c-0.047,0.118-0.066,0.24-0.104,0.36c-0.044,0.148-0.094,0.295-0.125,0.449
		c-0.032,0.151-0.041,0.301-0.057,0.454c-0.014,0.151-0.031,0.3-0.031,0.453c0,0.155,0.018,0.306,0.031,0.46
		c0.019,0.147,0.024,0.293,0.057,0.441c0.031,0.168,0.088,0.33,0.138,0.491c0.031,0.107,0.05,0.215,0.091,0.321
		c0.006,0.017,0.022,0.03,0.028,0.047c0.157,0.383,0.371,0.737,0.626,1.068c0.059,0.079,0.122,0.149,0.185,0.223
		c0.258,0.295,0.54,0.567,0.874,0.793c0.012,0.008,0.025,0.021,0.037,0.028c0.264,0.178,0.55,0.332,0.857,0.454
		c0.054,0.022,0.11,0.013,0.167,0.031c0.496,0.178,1.015,0.295,1.552,0.295c0.534,0,1.056-0.118,1.553-0.295
		c0.05-0.019,0.105-0.011,0.16-0.031l24.422-9.685c0.591-0.237,1.129-0.588,1.574-1.037l94.984-94.973
		c1.815-1.819,1.815-4.763,0-6.58c-1.816-1.817-4.764-1.817-6.579,0l-94.299,94.293l-0.336,0.134l-8.128-7.507l0.309-0.776
		l94.299-94.304c1.815-1.816,1.815-4.76,0-6.575c-1.816-1.817-4.764-1.817-6.579,0l-94.98,94.982
		C225.65-242.336,225.299-241.803,225.065-241.213z"/>
	<path d="M150.547-288.173c2.099,1.494,4.995,0.995,6.484-1.1c11.515-16.215,32.724-31.392,50.95-28.91
		c9.607,1.285,16.877,7.286,18.982,15.655c2.073,8.258-1.291,16.513-9.01,22.091c-5.561,4.015-12.535,7.52-19.918,11.222
		c-17.524,8.8-37.386,18.765-42.484,39.16c-3.296,13.174,3.71,27.356,17.031,34.485c4.957,2.651,10.121,3.952,15.11,3.952
		c7.7,0,14.985-3.104,20.439-9.095c1.728-1.904,1.583-4.841-0.313-6.572c-1.893-1.723-4.846-1.591-6.572,0.311
		c-7.295,8.033-17.33,6.91-24.27,3.205c-7.819-4.185-15.033-13.488-12.403-24.033c4.068-16.246,21.128-24.812,37.64-33.095
		c7.729-3.88,15.023-7.542,21.193-11.998c10.751-7.774,15.573-19.995,12.579-31.901c-3.048-12.143-13.308-20.807-26.767-22.609
		c-22.902-3.036-47.049,14.822-59.772,32.743C147.958-292.567,148.452-289.658,150.547-288.173z"/>
	<path d="M503.162-532H8.841c-4.875,0-8.84,3.966-8.84,8.846v494.312c0,4.875,3.965,8.842,8.84,8.842h494.321
		c4.872,0,8.837-3.968,8.837-8.842v-494.312C511.999-528.034,508.034-532,503.162-532z M502.696-29.306H9.304v-493.391h493.393
		V-29.306z"/>
</g>
<path d="M-1953.705,278.842h76.708v64.688c0,2.972-2.435,5.417-5.416,5.417h-26.99c-2.978,0-5.419,2.252-5.419,4.998
	c0,2.752,2.441,5.004,5.419,5.004h74.804c2.981,0,5.419-2.252,5.419-5.004c0-2.746-2.438-4.998-5.419-4.998h-26.989
	c-2.981,0-5.416-2.444-5.416-5.417v-64.688h76.708c8.973,0,16.271-7.294,16.271-16.273v-0.545c0-3.852-3.126-6.979-6.98-6.979
	h-3.069v-62.473c0-8.968-7.301-16.264-16.273-16.264h-129.914v-3.462c0-0.017,0.05-2.099,1.153-4.062
	c1.364-2.416,3.729-3.588,7.238-3.588h20.472c1.359,2.92,4.312,4.943,7.743,4.943h15.052c4.725,0,8.548-3.815,8.548-8.542
	c0-4.714-3.823-8.55-8.548-8.55h-15.052c-4.029,0-7.402,2.804-8.302,6.56h-19.913c-7.16,0-10.612,3.637-12.249,6.688
	c-1.681,3.136-1.725,6.195-1.725,6.533v3.479h-7.807c-8.973,0-16.273,7.296-16.273,16.264v62.473h-3.069
	c-0.65,0-1.277,0.096-1.874,0.262c-0.453,0.08-0.874,0.246-1.249,0.482c-2.284,1.147-3.855,3.506-3.855,6.235v0.545
	C-1969.972,271.548-1962.677,278.842-1953.705,278.842z M-1952.948,192.572c0-5.124,4.163-9.285,9.296-9.285h143.304
	c5.133,0,9.296,4.161,9.296,9.285v62.674h-161.896V192.572z M-1962.995,262.224h171.942c0.394,0,0.765-0.08,1.118-0.2h8.929v0.545
	c0,5.133-4.156,9.296-9.29,9.296h-163.409c-5.134,0-9.29-4.163-9.29-9.296V262.224z M-1624.84,0h-494.319
	c-4.869,0-8.84,3.966-8.84,8.843V503.16c0,4.875,3.971,8.84,8.84,8.84h494.319c4.869,0,8.84-3.965,8.84-8.84V8.843
	C-1616,3.966-1619.971,0-1624.84,0z M-1625.302,502.696h-493.393V9.302h493.393V502.696z"/>
<path d="M-1414.963,292.108l1.081,0.752c-0.764,16.787-20.08,25.604-20.281,25.69c-1.943,0.861-3.052,2.921-2.707,5.017
	c0.344,2.092,2.062,3.688,4.179,3.874c2.218,0.196,4.389,0.288,6.524,0.288c22.27,0,40.541-9.982,52.707-19.257
	c4.725,0.604,9.513,0.95,14.074,0.658l1.145-0.064c0.69-0.028,1.333-0.215,1.911-0.509c8.925,22.632,32.353,38.83,59.773,38.83
	c2.045,0,4.098-0.099,6.142-0.283c8.804,6.278,21.652,12.747,37.253,12.747c1.635,0,3.289-0.072,4.915-0.217
	c4.235-0.372,7.678-3.561,8.368-7.75c0.691-4.197-1.544-8.322-5.433-10.031c-0.036-0.019-7.187-3.362-9.367-9.059
	c13.902-11.329,21.761-27.356,21.761-44.501c0-26.167-18.429-48.404-43.867-56.144c0.164-0.476,0.272-0.979,0.272-1.511
	c-0.026-43.275-38.288-78.489-85.29-78.489c-47.02,0-85.28,35.227-85.28,78.53C-1447.083,254.66-1435.397,277.033-1414.963,292.108z
	 M-1242.222,288.291c0,15.702-7.94,29.702-20.334,38.842c-0.663,0.473-1.344,0.937-2.026,1.417
	c-0.754,14.646,15.527,21.815,15.527,21.815c-1.391,0.119-2.762,0.182-4.106,0.182c-14.919,0-27.049-7.116-34.653-13.129
	c-2.845,0.437-5.762,0.662-8.741,0.662c-30.001,0-54.325-22.295-54.325-49.789c0-27.496,24.324-49.772,54.325-49.772
	C-1266.544,238.519-1242.222,260.795-1242.222,288.291z M-1361.802,161.453c41.665,0,75.6,30.726,75.969,68.616
	c-3.488-0.552-7.067-0.855-10.723-0.855c-35.081,0-63.629,26.504-63.629,59.078c0,3.934,0.425,7.777,1.219,11.498l-0.991,0.053
	c-4.571,0.271-9.395-0.14-14.112-0.851c-1.271-0.182-2.57,0.154-3.578,0.954c-9.205,7.282-22.67,15.386-38.997,17.779
	c6.478-6.079,12.683-15.191,12.047-27.548c-0.072-1.439-0.808-2.768-1.998-3.587l-2.908-2.014
	c-17.963-13.256-28.275-32.9-28.275-53.897C-1437.778,192.507-1403.688,161.453-1361.802,161.453z M-1375.104,197.568
	c0.835,2.127,2.797,2.644,4.979,2.072c2.343-0.781,6.087-1.62,10.167-0.773c7.386,1.527,11.693,7.369,10.413,13.539
	c-2.672,12.901-22.007,11.885-25.195,27.322l-0.465,2.198c-0.472,2.317,0.573,3.915,2.89,4.398l3.189,0.653
	c2.208,0.464,3.39-0.218,4.098-2.026l0.601-2.291c3.524-12.603,22.523-11.083,26.176-28.719c2.535-12.24-6.298-22.343-18.862-24.95
	c-7.496-1.556-13.82,0.129-17.318,1.47c-2.252,0.917-2.598,2.573-1.69,4.826L-1375.104,197.568z M-1377.075,267.638l3.852,0.801
	c2.318,0.471,3.89-0.465,4.389-2.89l0.737-3.525c0.499-2.427-0.572-3.917-2.881-4.389l-3.861-0.8
	c-2.317-0.482-3.89,0.453-4.398,2.879l-0.727,3.525C-1380.465,265.667-1379.392,267.157-1377.075,267.638z M-1299.173,257.043
	l-4.043,0.602c-2.325,0.346-3.343,1.808-2.98,4.224l6.024,36.146c0.427,2.315,1.899,3.324,4.144,2.997l2.488-0.368
	c2.326-0.342,3.445-1.74,3.099-4.068l-4.651-36.347C-1295.365,257.808-1296.847,256.705-1299.173,257.043z M-1291.932,307.967
	l-3.443,0.509c-2.316,0.339-3.334,1.813-2.989,4.137l0.445,3.008c0.355,2.418,1.736,3.445,4.062,3.103l3.443-0.509
	c2.318-0.339,3.436-1.734,3.08-4.151l-0.444-3.011C-1288.114,308.73-1289.605,307.627-1291.932,307.967z M-1092.841,0h-494.319
	c-4.871,0-8.84,3.965-8.84,8.845v494.314c0,4.873,3.969,8.841,8.84,8.841h494.319c4.871,0,8.841-3.968,8.841-8.841V8.845
	C-1084,3.965-1087.97,0-1092.841,0z M-1093.303,502.694h-493.394V9.302h493.394V502.694z"/>
<path d="M-560.841,0h-494.319c-4.869,0-8.84,3.967-8.84,8.844V503.16c0,4.875,3.971,8.84,8.84,8.84h494.319
	c4.869,0,8.841-3.965,8.841-8.84V8.844C-552,3.967-555.972,0-560.841,0z M-561.306,502.696h-493.393V9.303h493.393V502.696z
	 M-758.038,200.302h-20.125c-13.594,0-25.331,8.845-29.251,21.524h-23.198v-5.287c0-2.573-2.079-4.652-4.649-4.652h-24.253
	c-2.569,0-4.649,2.079-4.649,4.652v5.287c-9.952,0.026-18.036,8.132-18.036,18.089v90.05c0,9.975,8.112,18.082,18.083,18.082
	h150.991c9.972,0,18.086-8.107,18.086-18.082v-90.05c0-9.975-8.114-18.089-18.086-18.089h-15.655
	C-732.708,209.146-744.445,200.302-758.038,200.302z M-704.346,239.915v90.05c0,4.838-3.939,8.777-8.78,8.777h-150.991
	c-4.841,0-8.78-3.939-8.78-8.777v-90.05c0-4.841,3.939-8.785,8.78-8.785h4.603c2.573,0,4.652-2.08,4.652-4.653v-5.287h14.948v5.287
	c0,2.573,2.08,4.653,4.652,4.653h31.504c2.262,0,4.197-1.626,4.584-3.856c1.774-10.235,10.611-17.668,21.011-17.668h20.125
	c10.396,0,19.235,7.433,21.014,17.671c0.39,2.228,2.325,3.854,4.587,3.854h19.312C-708.285,231.13-704.346,235.074-704.346,239.915z
	 M-768.327,232.548c-26.741,0-48.496,21.751-48.496,48.492c0,26.742,21.755,48.497,48.496,48.497
	c26.738,0,48.493-21.755,48.493-48.497C-719.834,254.299-741.589,232.548-768.327,232.548z M-768.327,320.236
	c-21.61,0-39.191-17.587-39.191-39.196c0-21.608,17.581-39.188,39.191-39.188c21.611,0,39.191,17.58,39.191,39.188
	C-729.136,302.649-746.716,320.236-768.327,320.236z M-833.597,237.362h-26.37c-2.891,0-5.234,2.344-5.234,5.232
	c0,2.891,2.344,5.233,5.234,5.233h26.37c2.891,0,5.234-2.343,5.234-5.233C-828.362,239.706-830.706,237.362-833.597,237.362z
	 M-916.314,329.701h22.864c2.573,0,4.653-2.08,4.653-4.65c0-2.572-2.08-4.652-4.653-4.652h-18.212V173.262h177.17v22.716
	c0,2.569,2.08,4.651,4.652,4.651c2.57,0,4.653-2.082,4.653-4.651v-27.366c0-2.573-2.083-4.652-4.653-4.652h-186.475
	c-2.569,0-4.652,2.079-4.652,4.652v156.439C-920.967,327.621-918.884,329.701-916.314,329.701z"/>
<polygon points="-276,0.699 -21.719,256 -276,511.301 "/>
<path d="M482.744,0H29.254C13.17,0,0,13.188,0,29.271v453.474C0,498.83,13.17,512,29.254,512h453.49
	C498.828,512,512,498.83,512,482.745V29.271C512,13.188,498.828,0,482.744,0z M431.91,287.203h-70.348V478.1H289.9V287.203h-50.834
	v-67.768H289.9c0,0,0-27.772,0-57.877c0-45.488,29.404-87.265,97.137-87.265c27.441,0,47.721,2.631,47.721,2.631l-1.598,63.288
	c0,0-21.213-0.199-43.791-0.199c-24.426,0-28.34,11.256-28.34,29.938c0,2.314,0,3.13,0,3.18c0,5.229,0,17.949,0,46.305h74.078
	L431.91,287.203z"/>
<path d="M-1645.125,532h-453.752c-16.012,0-29.123,13.129-29.123,29.16v453.68c0,16.031,13.111,29.16,29.123,29.16h453.752
	c16.012,0,29.125-13.129,29.125-29.16V561.16C-1616,545.129-1629.113,532-1645.125,532z M-1706.172,709.278
	c0.15,3.437,0.217,6.89,0.217,10.359c0,105.747-80.391,227.69-227.393,227.69c-45.135,0-87.154-13.262-122.525-35.966
	c6.264,0.733,12.611,1.118,19.076,1.118c37.438,0,71.91-12.795,99.252-34.266c-34.973-0.633-64.496-23.771-74.66-55.566
	c4.883,0.934,9.896,1.434,15.045,1.434c7.281,0,14.346-0.967,21.043-2.802c-36.555-7.356-64.096-39.702-64.096-78.472
	c0-0.334,0-0.667,0-1c10.781,5.988,23.094,9.592,36.205,10.008c-21.459-14.346-35.555-38.835-35.555-66.609
	c0-14.664,3.932-28.41,10.812-40.221c39.422,48.411,98.318,80.256,164.746,83.609c-1.365-5.855-2.082-11.978-2.082-18.25
	c0-44.189,35.789-80.006,79.941-80.006c22.975,0,43.752,9.709,58.33,25.256c18.211-3.586,35.305-10.242,50.75-19.417
	c-5.965,18.684-18.643,34.364-35.139,44.273c16.162-1.935,31.574-6.239,45.902-12.595
	C-1677.014,683.905-1690.561,698.002-1706.172,709.278z"/>
<path d="M-1113.195,532h-452.476c-16.048,0-30.329,13.16-30.329,29.244v453.496c0,16.082,14.281,29.26,30.329,29.26h452.476
	c16.047,0,29.195-13.178,29.195-29.26V561.244C-1084,545.16-1097.148,532-1113.195,532z M-1233.576,941.437
	c-14.681,6.932-27.979,11.808-39.877,14.597c-11.915,2.79-24.796,4.192-38.627,4.192c-15.697,0-29.579-2.005-41.66-5.962
	c-12.081-3.992-22.363-9.67-30.895-17.002c-8.532-7.383-14.448-15.199-17.73-23.5c-3.3-8.283-4.949-20.309-4.949-36.041V756.902
	h-37.978v-48.734c13.498-4.394,25.08-10.707,34.695-18.924c9.631-8.2,17.347-18.055,23.179-29.562
	c5.816-11.507,9.815-26.138,12.015-43.908h48.893v87.064h81.536v54.063h-81.536v88.334c0,19.959,1.05,32.785,3.166,38.463
	c2.1,5.662,6.032,10.188,11.765,13.578c7.599,4.561,16.297,6.848,26.096,6.848c17.381,0,34.694-5.678,51.908-17.002V941.437z"/>
<path d="M-695.726,665.896h-28.186c-5.033,0-9.134,4.112-9.134,9.143v28.28c0,5.031,4.101,9.143,9.134,9.143h28.186
	c5.017,0,9.117-4.111,9.117-9.143v-28.28C-686.608,670.008-690.709,665.896-695.726,665.896z M-552.133,557.473
	c0-14.073-5.4-25.473-19.435-25.473h-467.03c-14.034,0-25.402,11.399-25.402,25.473v459.985c0,14.073,10.401,25.472,24.436,25.472
	l463.979,1.07c14.018,0,23.585-12.469,23.585-26.542L-552.133,557.473z M-681.774,955.833h-240.532
	c-45.271,0-44.003,1.254-44.003-44.142v-150.91h95.372c-4.75,10.096-7.417,21.36-7.417,33.228c0,43.122,35.003,78.222,78.005,78.222
	c43.003,0,77.989-35.1,77.989-78.222c0-11.867-2.667-23.132-7.401-33.228h92.007v150.91
	C-637.755,957.087-636.488,955.833-681.774,955.833z M-832.718,794.009c0-17.901,14.518-32.459,32.368-32.459
	c17.852,0,32.386,14.558,32.386,32.459c0,17.918-14.534,32.476-32.386,32.476C-818.2,826.484-832.718,811.927-832.718,794.009z
	 M-637.755,669.139v61.139h-117.458c-12.751-9.091-28.335-14.473-45.137-14.473c-16.817,0-32.385,5.382-45.136,14.473H-966.31
	v-61.139c0-45.396-1.268-44.142,44.003-44.142h240.532C-636.488,624.997-637.755,623.743-637.755,669.139z"/>
<g>
	<g>
		<g>
			<path d="M-314.948,883.386c-0.286-0.389-0.572-0.603-0.865-0.651c-0.286-0.046-0.655,0.06-1.085,0.323
				c-1.182,0.896-2.492,1.589-3.938,2.082c-1.453,0.493-2.975,0.742-4.563,0.742c-1.973,0-3.795-0.377-5.467-1.122
				c-1.657-0.746-3.096-1.766-4.3-3.058c-1.205-1.288-2.146-2.798-2.824-4.522c-0.67-1.721-1.017-3.572-1.017-5.553
				c0-1.974,0.347-3.834,1.017-5.573c0.678-1.731,1.619-3.253,2.824-4.556c1.204-1.303,2.643-2.327,4.3-3.072
				c1.672-0.754,3.494-1.126,5.467-1.126c1.589,0,3.096,0.241,4.519,0.727c1.423,0.481,2.726,1.167,3.908,2.063
				c0.437,0.264,0.806,0.365,1.107,0.301c0.301-0.057,0.587-0.293,0.851-0.7l6.107-8.687c0.271-0.531,0.301-0.986,0.113-1.374
				c-0.196-0.384-0.497-0.696-0.904-0.938c-2.267-1.521-4.684-2.685-7.252-3.49c-2.575-0.813-5.301-1.213-8.193-1.213
				c-2.56,0-5.008,0.331-7.364,0.994c-2.35,0.663-4.549,1.589-6.604,2.786c-2.048,1.19-3.908,2.632-5.588,4.322
				c-1.679,1.688-3.117,3.562-4.322,5.626s-2.131,4.27-2.786,6.619c-0.647,2.35-0.979,4.805-0.979,7.361
				c0,2.56,0.332,5.011,0.979,7.36c0.655,2.354,1.581,4.549,2.786,6.59s2.644,3.893,4.322,5.568c1.68,1.676,3.54,3.118,5.588,4.326
				c2.056,1.205,4.255,2.132,6.604,2.783c2.356,0.651,4.805,0.975,7.364,0.975c2.893,0,5.648-0.414,8.262-1.246
				c2.62-0.832,5.061-2.007,7.327-3.528c0.414-0.24,0.715-0.542,0.911-0.903c0.188-0.361,0.15-0.806-0.113-1.341L-314.948,883.386z
				 M-256.428,857.718c-1.198-2.063-2.636-3.938-4.323-5.626c-1.694-1.69-3.562-3.132-5.617-4.322
				c-2.056-1.197-4.263-2.123-6.627-2.786c-2.357-0.663-4.812-0.994-7.35-0.994c-2.554,0-5.008,0.331-7.365,0.994
				c-2.35,0.663-4.549,1.589-6.604,2.786c-2.056,1.19-3.916,2.632-5.595,4.322c-1.68,1.688-3.118,3.562-4.323,5.626
				c-1.212,2.063-2.139,4.27-2.786,6.619c-0.655,2.35-0.979,4.805-0.979,7.361c0,2.56,0.323,5.011,0.979,7.36
				c0.647,2.354,1.574,4.549,2.786,6.59c1.205,2.041,2.644,3.893,4.323,5.568c1.679,1.676,3.539,3.118,5.595,4.326
				c2.056,1.205,4.255,2.132,6.604,2.783c2.357,0.651,4.812,0.975,7.365,0.975c2.537,0,4.992-0.323,7.35-0.975
				c2.364-0.651,4.571-1.578,6.627-2.783c2.056-1.208,3.923-2.65,5.617-4.326c1.688-1.676,3.125-3.527,4.323-5.568
				c1.197-2.041,2.123-4.236,2.786-6.59c0.662-2.35,0.994-4.801,0.994-7.36c0-2.557-0.332-5.012-0.994-7.361
				C-254.305,861.987-255.23,859.781-256.428,857.718z M-267.656,877.271c-0.678,1.735-1.619,3.249-2.839,4.541
				c-1.213,1.291-2.666,2.301-4.338,3.038c-1.672,0.738-3.509,1.104-5.512,1.104c-1.996,0-3.826-0.365-5.49-1.104
				c-1.656-0.737-3.095-1.747-4.314-3.038c-1.213-1.292-2.162-2.806-2.84-4.541c-0.67-1.735-1.009-3.604-1.009-5.606
				c0-1.98,0.339-3.841,1.009-5.588c0.678-1.751,1.627-3.275,2.84-4.578c1.22-1.303,2.658-2.327,4.314-3.072
				c1.664-0.754,3.494-1.126,5.49-1.126c2.003,0,3.84,0.372,5.512,1.126c1.672,0.745,3.125,1.77,4.338,3.072
				c1.22,1.303,2.161,2.827,2.839,4.578c0.67,1.747,1.009,3.607,1.009,5.588C-266.647,873.667-266.986,875.535-267.656,877.271z
				 M-200.988,844.78h-10.302c-0.392,0-0.73,0.124-1.017,0.365c-0.294,0.245-0.482,0.576-0.58,1.013v28.978
				c-3.088-4.944-6.138-9.812-9.149-14.617c-3.02-4.797-6.055-9.669-9.119-14.612c-0.264-0.411-0.58-0.701-0.941-0.87
				c-0.362-0.169-0.716-0.256-1.047-0.256h-11.838c-0.527,0-0.927,0.158-1.19,0.475c-0.264,0.312-0.398,0.685-0.398,1.122v50.574
				c0,0.438,0.128,0.803,0.384,1.104c0.248,0.305,0.655,0.452,1.205,0.452h10.279c0.625,0,1.062-0.132,1.303-0.396
				c0.24-0.264,0.361-0.663,0.361-1.193v-31.079c3.23,5.306,6.416,10.555,9.549,15.735c3.14,5.188,6.311,10.43,9.519,15.738
				c0.263,0.362,0.512,0.652,0.76,0.87c0.241,0.215,0.52,0.324,0.829,0.324h11.544c0.505,0,0.903-0.117,1.189-0.343
				c0.294-0.229,0.438-0.588,0.438-1.069v-50.718c0-0.509-0.174-0.9-0.505-1.175C-200.062,844.923-200.477,844.78-200.988,844.78z
				 M-287.454,835.118h0.016c1.754-0.019,3.509-0.033,5.271-0.045h0.046c0.948-0.008,2.478-0.008,3.411-0.011h5.475
				c0.512,0,1.024,0,1.536,0.003c0.513,0,1.024,0.008,1.528,0.008h0.234c1.822,0.008,3.652,0.026,5.475,0.045
				c0.948,0.008,2.492-0.102,3.434-0.248c0,0,11.936-1.838,16.868-5.968c4.91-4.116,7.599-9.703,7.583-15.75
				c-0.022-7.9-0.045-15.8-0.067-23.699l-0.061-21.974v-0.012c-0.007-0.568-0.007-1.141-0.007-1.713
				c-0.023-6.043-2.734-11.74-7.637-15.999c-4.917-4.28-11.483-6.619-18.487-6.619h-24.526c-0.949,0-1.725,0.779-1.732,1.729v5.697
				c-0.015,12.857-0.03,25.716-0.045,38.574l-0.03,36.848v1.724c-0.008,0.55-0.008,1.1-0.008,1.649v4.052
				C-289.179,834.357-288.402,835.126-287.454,835.118z M-270.006,757.976c1.83,0.008,3.668,0.008,5.497,0.008
				c0.565,0.008,1.13,0.008,1.694,0.008c4.797,0.003,8.706,3.438,8.706,7.644c0,0.572,0.007,1.145,0.007,1.721
				c0,0.003,0,0.003,0,0.003l0.038,21.847c0.015,7.861,0.022,15.716,0.037,23.578c0.008,4.104-3.908,7.372-8.728,7.323
				c-0.572-0.004-1.145-0.012-1.725-0.015l-5.489-0.034c-0.58-0.004-1.16-0.008-1.732-0.012c0-0.576,0-1.152-0.008-1.728
				l-0.007-29.31c0-10.339-0.008-20.687-0.008-31.033H-270.006z M-366.569,749.963c-4.918-4.367-11.439-6.822-18.345-6.826
				c-14.481-0.075-26.334,10.825-26.425,24.312c-0.06,8.589-0.112,17.181-0.173,25.777l-0.166,24.045
				c0,0.579-0.007,1.151-0.007,1.731c-0.099,13.597,11.619,23.066,26.146,21.537c14.413-1.51,26.214-12.771,26.281-25.528
				c0.046-8.141,0.091-16.28,0.136-24.421l0.128-22.693c0-0.004,0-0.004,0-0.008v-1.721
				C-358.956,760.065-361.652,754.339-366.569,749.963z M-376.518,791.324l-0.143,23.07c0,0,0,0,0,0.004
				c-0.008,0.576-0.008,1.148-0.016,1.729c-0.022,4.397-3.953,8.275-8.758,8.689c-5,0.43-8.901-2.778-8.863-7.35
				c0.053-8.419,0.105-16.838,0.166-25.257l0.15-23.529v-0.004c0.008-0.572,0.008-1.145,0.008-1.725
				c0.029-4.383,4.051-8.02,8.961-8.092c4.797-0.071,8.675,3.37,8.645,7.666C-376.42,774.791-376.473,783.06-376.518,791.324z
				 M-21.725,743.137h-13.909c-0.948,0-1.724,0.779-1.724,1.729v1.205c0,0.979,0.007,1.954,0.007,2.933c0,0.606,0,1.217,0.008,1.684
				c0,3.667,0.008,7.338,0.015,11.01l0.023,10.964v3.449l0.007,2.492c0.008,0.836,0.008,1.672,0.008,2.508v1.71
				c0.015,5.414-3.863,9.436-8.63,8.995c-4.971-0.46-8.879-4.951-8.894-10.249c-0.008-0.576-0.008-1.148-0.008-1.725
				c0,0,0,0,0-0.004l-0.008-2.357c-0.007-0.869-0.007-1.743-0.007-2.612c0-0.49-0.008-0.979-0.008-1.469
				c0-0.302-0.008-0.595-0.008-0.893v-0.734c-0.007-3.554-0.022-7.108-0.03-10.667l-0.037-10.562v-0.102
				c0-0.241-0.008-0.481-0.008-0.727v-0.896c-0.007-0.609-0.007-1.22-0.007-1.687v-0.045l-0.008-1.107v-1.114
				c-0.008-0.949-0.783-1.729-1.732-1.729h-13.908c-0.949,0-1.725,0.779-1.725,1.729l0.007,1.028
				c0.008,0.437,0.008,0.877,0.008,1.313c0.008,0.949,0.015,2.305,0.015,3.167l0.053,10.196c0.016,3.505,0.03,7.011,0.046,10.516
				c0,0.418,0.007,0.912,0.007,1.409c0,0.392,0,0.779,0.008,1.167v0.561l0.008,2.236l0.015,2.237c0,0.576,0.008,1.152,0.008,1.728
				c0.053,11.379,6.815,21.843,16.996,27.125c0.377,0.641,0.633,1.416,0.633,2.049l0.03,8.05l0.022,8.047
				c0.008,0.071,0.008,0.154,0.008,0.237v1.822c0,0.278,0,0.553,0.007,0.828c0.023,7.809,0.053,15.618,0.076,23.428
				c0.007,0.948,0.007,1.897,0.015,2.843v1.114c0.008,0.945,0.769,1.883,1.702,2.074l1.905,0.399
				c0.323,0.067,0.723,0.15,1.137,0.241c0.339,0.067,0.686,0.143,1.024,0.215c1.875,0.398,3.765,0.806,5.647,1.216
				c0.354,0.075,0.708,0.15,1.055,0.226c0.422,0.095,0.813,0.181,1.137,0.249l1.905,0.422c0.927,0.207,1.68-0.399,1.68-1.353v-1.204
				c0-0.976-0.008-1.954-0.008-2.934v-1.702c-0.008-3.667-0.015-7.327-0.022-10.986c-0.008-3.705-0.015-7.402-0.022-11.107v-2.67
				c-0.016-3.001-0.016-6.01-0.022-9.011c-0.008-2.794-0.008-5.58-0.016-8.374c0-0.692,0.385-1.468,0.919-1.995
				c4.338-1.382,8.201-4.176,11.04-8.08c0.083-0.113,0.158-0.233,0.24-0.347c3.299-4.699,5.046-10.645,5.046-17.094v-39.287
				C-20,743.916-20.775,743.137-21.725,743.137z M-350.598,835.977c0.016,0.761,0.655,1.401,1.483,1.521
				c1.093-0.075,2.191-0.143,3.291-0.219c0.075,0,0.144-0.007,0.211-0.015c0.294-0.015,0.588-0.034,0.874-0.053
				c1.905-0.12,3.811-0.233,5.716-0.343c0.361-0.019,0.729-0.041,1.084-0.061c0.429-0.025,0.821-0.049,1.152-0.063l1.912-0.105
				c0.949-0.053,1.732-0.791,1.732-1.634c0-0.543,0.008-1.966,0.015-3.175c0.016-3.313,0.023-6.63,0.038-9.943
				c0.015-3.344,0.03-6.68,0.045-10.023v-1.732l0.022-5.463l0.023-5.471c0.007-0.576,0.007-1.152,0.007-1.725
				c5.882-0.181,11.771-0.332,17.651-0.46c-0.007,2.38-0.015,4.76-0.022,7.14c0,1.991-0.007,3.987-0.015,5.979v1.156
				c-0.008,0.38-0.008,0.757-0.008,1.137v0.592l-0.022,8.216c-0.008,2.737-0.015,5.475-0.022,8.216c0,0.116,0,0.248-0.008,0.38
				h-0.022c0.008,1.224,0.008,3.569,0.008,4.293c0,0.033,0,0.067,0.007,0.102c0.061,0.79,0.813,1.438,1.725,1.461l0.482,0.007
				c0.858-0.026,1.717-0.06,2.583-0.083c0.06-0.007,0.136-0.007,0.195-0.007c0.294-0.012,0.595-0.019,0.882-0.03
				c1.904-0.057,3.817-0.113,5.73-0.158c0.286-0.008,0.587-0.019,0.889-0.022c0.067,0,0.135-0.008,0.203-0.008
				c0.414-0.007,0.813-0.019,1.137-0.026l1.921-0.041c0.948-0.022,1.725-0.723,1.725-1.559c0-0.73,0.015-3.073,0.015-4.301v-0.474
				l0.015-8.163l0.008-8.163v-1.966c0.016-7.471,0.03-14.94,0.045-22.411l0.03-20.92c0,0,0,0,0-0.003v-1.721
				c0.008-5.919-2.703-11.5-7.65-15.731c-4.933-4.236-11.454-6.582-18.359-6.582c-14.474-0.037-26.312,10.219-26.372,22.878
				c-0.008,0.58-0.008,1.152-0.008,1.725c-0.045,7.165-0.075,14.33-0.113,21.496l-0.105,21.488v0.35
				c-0.007,0.46-0.007,0.915-0.015,1.375v1.084c-0.015,3.02-0.03,6.039-0.045,9.06c-0.016,2.963-0.03,5.926-0.053,8.886h-0.03
				c0.008,1.231,0.015,3.577,0.015,4.3V835.977z M-332.893,774.17l0.022-6.498v-0.004c0-0.576,0.007-1.148,0.007-1.725
				c0.023-4.165,4.029-7.584,8.939-7.613c4.797-0.034,8.689,3.298,8.675,7.425v1.721c-0.008,2.143-0.015,4.289-0.022,6.435
				c-0.008,2.719-0.022,5.438-0.022,8.156c-0.572,0.007-1.152,0.022-1.732,0.029l-14.173,0.264
				c-0.579,0.012-1.151,0.022-1.731,0.038C-332.916,779.652-332.908,776.911-332.893,774.17z M-445.956,743.137h-24.324
				c-0.948,0-1.724,0.779-1.731,1.729c-0.008,0.899-0.008,1.8-0.016,2.699c-0.007,1.382-0.015,2.761-0.022,4.146v0.888
				c-0.007,0.136-0.007,0.264-0.007,0.389v0.459c-0.008,0.094-0.008,0.188-0.008,0.271l-0.233,45.967l-0.241,45.97v1.333
				c0,0.136-0.008,0.264-0.008,0.392v0.26c0,0.539-0.007,1.059-0.007,1.473v0.986l-0.008,0.994
				c-0.008,0.948,0.753,1.589,1.687,1.423l1.913-0.346c0.323-0.061,0.715-0.129,1.137-0.204c0.339-0.06,0.7-0.128,1.055-0.188
				c1.89-0.332,3.78-0.659,5.67-0.987c0.354-0.06,0.724-0.12,1.077-0.181c0.414-0.075,0.806-0.136,1.13-0.191l1.936-0.328
				c0.934-0.158,1.709-1.062,1.709-2.011c0.045-6.894,0.083-13.792,0.128-20.686l0.121-20.687c0.007-0.941,0.768-1.777,1.694-1.883
				c0.015-0.004,0.029-0.008,0.037-0.008l5.211-0.489c0.022-0.004,0.061-0.004,0.091-0.008c0.542-0.049,1.084-0.105,1.627-0.15
				c4.789-0.426,8.652,3.005,8.622,7.629c0,0.572-0.008,1.145-0.008,1.721c0,0.727-0.008,1.457-0.015,2.188
				c0,0.73-0.016,1.457-0.016,2.188c0,0.475-0.007,1.096-0.015,1.721c-0.022,3.72-0.045,7.439-0.067,11.156l-0.061,9.432
				c-0.008,0.234-0.008,0.509-0.008,0.803c0,0,0,0,0,0.004h-0.015v1.242c0,0.158-0.008,0.312-0.008,0.463
				c0,0.41,0,0.799-0.008,1.107v1.555c0.046,0.734,0.671,1.348,1.483,1.469c0.068-0.008,0.144-0.008,0.211-0.016
				c1.017-0.15,2.041-0.301,3.065-0.451c0.075-0.008,0.15-0.02,0.226-0.03c0.278-0.042,0.558-0.079,0.828-0.121
				c1.898-0.271,3.796-0.534,5.693-0.802c0.354-0.049,0.723-0.102,1.077-0.146c0.422-0.061,0.813-0.113,1.137-0.158l1.913-0.256
				c0.941-0.128,1.717-0.986,1.725-1.913c0-0.682,0.015-2.628,0.022-3.973c0-0.053,0-0.108,0.007-0.161v-0.572
				c0.023-3.179,0.038-6.356,0.068-9.542c0.015-3.283,0.037-6.566,0.067-9.85v-1.043c0.008-0.621,0.008-1.25,0.016-1.725l0.015-2.09
				l0.016-2.093c0,0,0,0,0-0.004c0-0.572,0.007-1.148,0.007-1.721c0.046-5.866-2.003-11.168-5.798-15.287
				c-0.211-0.227-0.422-0.444-0.641-0.663c0.219-0.233,0.422-0.478,0.617-0.723c3.879-4.669,6.002-10.32,6.048-16.308
				c0.007-1.577,0.022-3.159,0.03-4.74l0.022-3.012c0-0.576,0.007-1.152,0.015-1.725
				C-419.976,754.252-431.588,743.231-445.956,743.137z M-437.439,770.04c-0.008,1.043-0.015,2.086-0.022,3.125
				c-0.008,1.619-0.022,3.238-0.038,4.857c-0.022,4.729-3.945,8.825-8.735,9.153c-2.876,0.191-5.768,0.384-8.645,0.583
				c0.022-4.567,0.053-9.134,0.083-13.698l0.067-11.977v-0.004c0.008-0.572,0.008-1.145,0.016-1.725
				c0.564-0.015,1.137-0.03,1.709-0.045c1.747-0.046,3.494-0.091,5.241-0.136c0.564-0.015,1.137-0.03,1.702-0.045
				c4.789-0.113,8.66,3.565,8.638,8.182C-437.432,768.888-437.439,769.46-437.439,770.04z M-79.416,847.642v-0.256
				c-0.007-0.098-0.007-0.192-0.007-0.29c0-0.343,0-0.689-0.008-1.035v-0.117c-0.016-3.445-0.03-6.887-0.053-10.328l-0.045-10.046
				c0-0.09,0-0.188-0.008-0.29v-1.438c-0.008-0.132-0.008-0.26-0.008-0.388v-0.606c0-0.166-0.008-0.32-0.008-0.471v-0.264
				l-0.128-25.234c-0.053-8.984-0.09-17.976-0.143-26.96c-0.03-7.048-2.786-13.807-7.764-18.841
				c-4.971-5.053-11.515-7.734-18.42-7.734c-14.481,0.091-26.184,11.104-26.094,24.564c0.008,0.58,0.008,1.152,0.008,1.732
				l0.158,23.209c0.061,7.994,0.113,15.987,0.166,23.978v0.971c0.007,0.23,0.007,0.464,0.015,0.697v1.027l0.067,9.161l0.03,5.523
				l0.022,3.31c0,0.479,0.008,1.104,0.008,1.729c0,0.15,0.008,0.302,0.008,0.452v0.986c0,0.102,0,0.195,0.008,0.29l0.007,0.915
				v0.918c0,0.061,0,0.121,0.016,0.174c0.09,0.889,0.82,1.69,1.701,1.837l0.52,0.091c0.791,0.105,1.574,0.211,2.365,0.316
				c0.061,0.008,0.112,0.015,0.173,0.022c0.361,0.053,0.738,0.105,1.092,0.15c1.891,0.264,3.78,0.531,5.671,0.806
				c0.354,0.049,0.73,0.098,1.084,0.154c0.422,0.057,0.813,0.117,1.138,0.162l1.905,0.282c0.941,0.14,1.709-0.52,1.701-1.464
				c-0.007-0.75-0.022-2.952-0.029-4.308v-0.855l-0.068-9.424l-0.061-9.429v-0.617c-0.015-0.919-0.015-2.071-0.022-2.839
				l-0.045-6.276c-0.015-2.094-0.022-4.184-0.037-6.281c0-0.576-0.008-1.148-0.016-1.725c5.866,0.509,11.718,1.043,17.568,1.608
				c0,0.572,0.008,1.152,0.008,1.725l0.045,6.491l0.038,6.491c0,0.406,0,0.919,0.008,1.445v0.283
				c0.022,3.813,0.045,7.632,0.067,11.45l0.061,9.722c0,0.475,0.007,1.1,0.007,1.728c0,0.151,0,0.306,0.008,0.456v0.979
				c0,0.105,0,0.203,0.008,0.293l0.008,0.915v0.919c0.007,0.949,0.775,1.853,1.717,2.011l1.905,0.319
				c0.323,0.053,0.715,0.121,1.129,0.196c0.354,0.061,0.724,0.12,1.085,0.181c1.89,0.324,3.772,0.655,5.663,0.986
				c0.346,0.061,0.708,0.128,1.047,0.188c0.429,0.075,0.82,0.144,1.151,0.203l1.905,0.339c0.935,0.174,1.694-0.467,1.688-1.415
				v-0.994l-0.008-0.994C-79.416,848.703-79.416,848.18-79.416,847.642z M-98.8,787.85l-14.059-0.927
				c-0.588-0.037-1.175-0.075-1.763-0.112c-0.015-3.05-0.037-6.1-0.061-9.15c-0.015-2.478-0.029-4.951-0.053-7.425
				c0-0.58,0-1.152-0.007-1.725c-0.03-4.623,3.938-8.287,8.841-8.17c4.789,0.108,8.705,4.081,8.735,8.841
				c0.008,0.576,0.008,1.151,0.008,1.724c0.037,5.113,0.067,10.227,0.098,15.34c0,0.576,0.007,1.152,0.007,1.725
				C-97.64,787.933-98.22,787.895-98.8,787.85z M-140.563,807.104l-0.158-22.599l-0.15-22.596c0-0.327,0-0.734-0.008-1.155
				c0-0.188,0-0.381-0.008-0.572v-0.938c0-0.29-0.007-0.558-0.007-0.791l-0.03-4.21c-0.008-1.63-0.022-3.257-0.03-4.891
				c0-0.294-0.008-0.595-0.008-0.893v-0.222c-0.008-0.32-0.008-0.633-0.008-0.957v-0.437c0-0.067-0.007-0.132-0.007-0.195
				c0-0.539-0.008-1.077-0.008-1.619v-0.099c-0.03-0.82-0.655-1.498-1.469-1.6h-12.297l-1.755-0.004h-0.369
				c-0.768,0.087-1.386,0.7-1.476,1.476c0,0.128,0,0.26,0.008,0.392c0,1.002,0.007,2.007,0.015,3.005
				c0.015,1.943,0.03,3.878,0.038,5.821l0.029,4.089c0,0.475,0.008,1.1,0.008,1.725c0.105,15.336,0.203,30.672,0.309,46.004
				c0,0.934-0.022,2.019-0.053,2.439c-0.03,0.426-0.813,2.357-1.333,3.155l-6.287,9.729c-0.505,0.783-1.326,0.783-1.823,0.012
				c-2.334-3.807-4.669-7.579-7.011-11.326c-0.316-0.53-0.55-0.911-0.557-0.93c0,0-0.008-0.008-0.008-0.016
				c0-0.029-0.016-0.082-0.03-0.165c-0.061-0.324-0.12-0.618-0.166-0.907c-0.075-0.667-0.143-2.346-0.143-3.201l-0.144-21.684
				l-0.128-21.681c-0.007-0.949-0.007-1.725-0.007-1.725c-0.016-2.703-0.03-5.407-0.046-8.11c-0.015-2.086-0.03-4.176-0.045-6.266
				v-0.368c-0.091-0.787-0.73-1.408-1.528-1.469h-3.871c-0.294,0-0.58-0.004-0.866-0.004h-9.511
				c-0.866,0.041-1.559,0.742-1.589,1.607v0.128c0.008,0.941,0.015,2.764,0.015,2.81v0.169c0,0.486,0,0.976,0.008,1.465
				c0.045,9.07,0.098,18.141,0.15,27.212l0.144,26.951v0.034c0.007,0.941-0.016,2.033-0.053,2.443
				c-0.03,0.41-0.821,2.297-1.355,3.084l-6.438,9.541c-0.535,0.779-1.371,0.775-1.875-0.004c-2.199-3.49-4.398-6.969-6.598-10.418
				c-0.474-0.779-0.956-1.71-1.076-2.131c-0.128-0.444-0.241-2.388-0.249-3.337l-0.098-21.032l-0.09-21.037v-0.53
				c0-0.399-0.008-0.798-0.008-1.193c0-0.464-0.008-0.927-0.008-1.329c-0.008-1.408-0.015-2.816-0.015-4.225l-0.022-3.83v-0.226
				c-0.008-0.501-0.008-1.001-0.008-1.502v-0.686c-0.008-0.32-0.008-0.617-0.008-0.866c-0.008-0.459-0.008-0.919-0.008-1.382v-0.112
				c-0.029-0.886-0.753-1.593-1.642-1.608h-14.052c-0.889,0-1.611,0.689-1.672,1.559c0,0.068,0,0.147,0.008,0.241
				c0,1.081,0.008,3.668,0.008,4.533l0.022,3.773c0,1.837,0.008,3.671,0.015,5.505v0.997c0.008,0.237,0.008,0.456,0.008,0.655
				c0.015,6.122,0.037,12.249,0.061,18.375c0.029,6.676,0.045,13.352,0.067,20.027c0,0.241,0,0.474,0.008,0.715v0.994
				c0.007,1.107,0.007,2.21,0.015,3.313c0.016,4.522,1.514,8.875,4.338,12.637c0.271,0.418,0.542,0.836,0.813,1.257
				c0.045,0.068,0.082,0.128,0.12,0.188l9.715,15.023c0.022,0.038,0.045,0.075,0.075,0.117c0.286,0.444,0.572,0.885,0.858,1.332
				c0.806,1.375,2.771,2.527,4.495,2.64c0.58,0.034,1.152,0.075,1.725,0.109h0.008l8.329,0.568c0.579,0.042,1.151,0.083,1.724,0.121
				c1.702,0.128,3.359-0.542,4.526-1.842c0.008-0.011,0.015-0.019,0.022-0.026h0.008c0.015-0.019,0.03-0.037,0.045-0.057
				c0.309-0.463,0.617-0.922,0.934-1.389c0.008-0.012,0.016-0.03,0.03-0.045l0.008-0.023c1.717-2.545,3.419-5.098,5.128-7.658
				l0.016-0.03c0.526-0.79,1.355-0.775,1.845,0.038c0.015,0.019,0.022,0.037,0.037,0.06l5.204,8.698
				c0.294,0.501,0.595,1.002,0.896,1.502c0.007,0.012,0.015,0.023,0.029,0.034c0.016,0.022,0.038,0.049,0.053,0.071
				c1.19,1.51,2.847,2.471,4.549,2.632c0.58,0.057,1.152,0.113,1.725,0.17l8.275,0.832c0.016,0,0.03,0.004,0.038,0.004
				c0.572,0.057,1.145,0.116,1.717,0.177c1.702,0.181,3.344-0.459,4.519-1.77c0.022-0.03,0.045-0.061,0.075-0.091
				c3.743-5.738,7.485-11.54,11.221-17.41c2.771-3.645,4.217-8.171,4.18-13.051c-0.008-0.572-0.008-1.145-0.008-1.717
				C-140.563,807.104-140.563,807.104-140.563,807.104z M-505.733,743.137h-24.414c-1.024,0-1.853,0.832-1.853,1.856v118.636
				c0,0.949,0.753,1.544,1.687,1.325c1.725-0.41,3.449-0.82,5.182-1.22c0.067-0.019,0.143-0.037,0.218-0.053
				c0.927-0.219,2.297-0.534,3.163-0.734l3.855-0.877c0.927-0.211,2.44-0.55,3.374-0.757l6.785-1.487v-0.004
				c0.557-0.117,1.122-0.244,1.687-0.365c14.218-3.186,25.89-17.505,25.965-32.344c0.008-1.731,0.016-3.456,0.022-5.188l0.016-3.46
				c0-0.004,0-0.004,0-0.008c0.008-0.572,0.008-1.145,0.015-1.721c0.022-6.615-2.086-12.455-5.986-16.857
				c-0.105-0.451-0.113-0.948-0.022-1.4c3.969-5.154,6.145-11.326,6.175-17.844c0.008-1.725,0.015-3.456,0.022-5.185l0.022-3.46
				c0,0,0,0,0-0.004c0-0.576,0-1.148,0.008-1.721C-479.746,755.431-491.365,743.269-505.733,743.137z M-497.329,824.342
				l-0.016,3.623c0,0.576,0,1.148-0.008,1.725c-0.015,5.09-3.9,9.898-8.652,10.769c-0.564,0.098-1.129,0.203-1.694,0.301
				c-1.807,0.331-3.614,0.663-5.422,0.994c-0.564,0.105-1.137,0.211-1.694,0.316v-1.729l0.022-13.461
				c0.016-5.061,0.016-10.128,0.03-15.188c0.558-0.072,1.114-0.14,1.672-0.211c1.845-0.237,3.697-0.471,5.55-0.7
				c0.535-0.068,1.077-0.14,1.619-0.208c4.76-0.575,8.63,3.212,8.615,8.424C-497.314,820.776-497.322,822.558-497.329,824.342z
				 M-497.164,776.44l-0.015,3.622c0,0.58,0,1.152-0.008,1.725c-0.015,5.087-3.916,9.567-8.683,10.008
				c-2.952,0.264-5.911,0.535-8.863,0.81c0.008-0.575,0.008-1.155,0.008-1.728c0.007-4.488,0.015-8.977,0.022-13.461
				c0.007-5.064,0.022-10.125,0.03-15.193c0.572-0.015,1.145-0.037,1.717-0.06h0.007l5.43-0.188h0.03
				c0.564-0.019,1.13-0.041,1.694-0.061c4.782-0.15,8.66,3.973,8.646,9.18C-497.156,772.879-497.156,774.656-497.164,776.44z"/>
		</g>
	</g>
	<g>
		<g>
			<path d="M-319.609,689.162c-0.12-0.554-0.256-1.092-0.437-1.615s-0.384-1.032-0.625-1.525c-0.233-0.489-0.497-0.964-0.783-1.416
				c-0.278-0.459-0.58-0.896-0.911-1.31c-0.324-0.418-0.678-0.821-1.047-1.197c-0.369-0.385-0.761-0.746-1.175-1.089
				c-0.414-0.342-0.844-0.666-1.288-0.975c-0.444-0.305-0.911-0.588-1.393-0.854c-0.482-0.268-0.986-0.513-1.499-0.738
				c-0.512-0.226-1.047-0.434-1.597-0.621c-0.549-0.188-1.106-0.354-1.671-0.49c-0.558-0.143-1.138-0.26-1.71-0.354
				c-0.58-0.094-1.167-0.166-1.762-0.211c-0.596-0.045-1.197-0.067-1.808-0.067c-0.595,0-1.183,0.022-1.762,0.075
				c-0.58,0.049-1.152,0.124-1.718,0.226c-0.572,0.098-1.129,0.227-1.679,0.377s-1.085,0.323-1.619,0.53
				c-0.535,0.2-1.055,0.422-1.559,0.667c-0.505,0.241-0.994,0.504-1.469,0.783c-0.475,0.286-0.934,0.587-1.378,0.911
				c-0.444,0.323-0.874,0.67-1.288,1.031c-0.414,0.369-0.806,0.75-1.183,1.152c-0.368,0.399-0.723,0.821-1.054,1.258
				c-0.339,0.437-0.655,0.889-0.949,1.363c-0.293,0.474-0.572,0.964-0.828,1.476c-0.248,0.509-0.481,1.031-0.678,1.566
				c-0.203,0.538-0.369,1.088-0.512,1.649c-0.144,0.564-0.257,1.137-0.347,1.731c-0.083,0.588-0.144,1.19-0.173,1.808l-0.091,1.83
				c0,0.09,0,0.177,0.016,0.264c0.007,0.086,0.029,0.173,0.053,0.256c0.022,0.083,0.06,0.166,0.098,0.248
				c0.037,0.083,0.083,0.166,0.135,0.245c0.053,0.079,0.113,0.146,0.196,0.207c0.075,0.061,0.158,0.113,0.264,0.15
				c0.105,0.038,0.211,0.068,0.339,0.091c0.128,0.019,0.264,0.03,0.414,0.03h9.188c0.136,0,0.271-0.016,0.398-0.038
				c0.136-0.022,0.257-0.061,0.369-0.105c0.105-0.045,0.219-0.109,0.316-0.181c0.091-0.067,0.188-0.15,0.264-0.248
				c0.083-0.091,0.15-0.185,0.211-0.279c0.067-0.094,0.113-0.188,0.158-0.278c0.045-0.098,0.075-0.188,0.098-0.286
				c0.022-0.091,0.038-0.188,0.045-0.282l0.076-1.939c0.007-0.165,0.022-0.327,0.045-0.489c0.022-0.166,0.061-0.324,0.105-0.482
				c0.037-0.158,0.09-0.319,0.15-0.478c0.061-0.154,0.128-0.312,0.203-0.471c0.083-0.15,0.166-0.302,0.256-0.448
				c0.083-0.146,0.181-0.29,0.279-0.426c0.105-0.136,0.211-0.271,0.323-0.398c0.113-0.129,0.233-0.257,0.354-0.377
				c0.128-0.12,0.248-0.233,0.384-0.339s0.271-0.211,0.414-0.301c0.136-0.099,0.286-0.185,0.437-0.268
				c0.151-0.083,0.302-0.162,0.467-0.229c0.158-0.072,0.324-0.132,0.49-0.188c0.165-0.049,0.331-0.091,0.497-0.128
				c0.173-0.038,0.346-0.061,0.52-0.075c0.173-0.02,0.346-0.03,0.526-0.03c0.158,0,0.324,0.008,0.475,0.022
				c0.166,0.015,0.316,0.034,0.482,0.061c0.15,0.022,0.309,0.06,0.467,0.098c0.15,0.037,0.301,0.083,0.452,0.136
				c0.158,0.053,0.309,0.112,0.451,0.177c0.144,0.063,0.286,0.136,0.422,0.215c0.136,0.075,0.271,0.158,0.399,0.248
				c0.136,0.091,0.256,0.188,0.376,0.286c0.121,0.105,0.241,0.211,0.347,0.328c0.113,0.112,0.211,0.236,0.309,0.361
				c0.098,0.124,0.188,0.26,0.271,0.402c0.083,0.14,0.166,0.286,0.233,0.438c0.075,0.15,0.136,0.309,0.188,0.474
				c0.06,0.166,0.098,0.332,0.135,0.513c0.03,0.173,0.053,0.354,0.068,0.542c0.008,0.188,0.015,0.384,0.008,0.58
				c0,0.158-0.016,0.316-0.03,0.467c-0.016,0.15-0.038,0.297-0.061,0.44c-0.03,0.146-0.061,0.286-0.091,0.426
				c-0.045,0.135-0.082,0.267-0.128,0.398c-0.045,0.128-0.104,0.264-0.188,0.407c-0.068,0.139-0.166,0.29-0.271,0.444
				c-0.105,0.158-0.226,0.319-0.369,0.489c-0.136,0.169-0.286,0.347-0.459,0.527l-22.998,26.032
				c-0.053,0.079-0.099,0.158-0.128,0.241c-0.038,0.079-0.068,0.158-0.091,0.241c-0.03,0.083-0.053,0.166-0.067,0.248
				c-0.016,0.083-0.023,0.166-0.023,0.253l-0.263,5.456c0,0.124,0,0.24,0.022,0.361c0.015,0.112,0.053,0.226,0.098,0.335
				c0.037,0.109,0.098,0.211,0.166,0.312c0.067,0.105,0.15,0.203,0.233,0.297c0.098,0.095,0.195,0.182,0.293,0.253
				c0.099,0.067,0.196,0.128,0.31,0.173c0.105,0.053,0.211,0.083,0.315,0.109c0.113,0.026,0.227,0.034,0.347,0.034h33.699
				c0.12,0,0.241-0.008,0.354-0.034c0.113-0.026,0.219-0.061,0.324-0.109c0.098-0.049,0.203-0.112,0.294-0.185
				c0.098-0.071,0.188-0.158,0.271-0.26c0.083-0.098,0.158-0.195,0.227-0.301c0.06-0.098,0.112-0.207,0.158-0.316
				c0.045-0.105,0.082-0.219,0.105-0.328c0.022-0.112,0.029-0.226,0.037-0.342l0.227-8.51c0-0.144-0.008-0.275-0.023-0.396
				c-0.015-0.124-0.045-0.233-0.082-0.339c-0.03-0.102-0.083-0.192-0.144-0.278c-0.053-0.087-0.12-0.162-0.196-0.227
				c-0.075-0.067-0.157-0.124-0.248-0.177c-0.09-0.049-0.181-0.09-0.278-0.124c-0.099-0.034-0.203-0.057-0.316-0.071
				c-0.105-0.02-0.219-0.026-0.339-0.026h-16.364l12.915-13.974c0.188-0.195,0.369-0.392,0.558-0.595
				c0.173-0.203,0.354-0.406,0.534-0.609c0.181-0.211,0.354-0.418,0.535-0.629c0.173-0.215,0.339-0.426,0.512-0.645
				c0.173-0.214,0.339-0.437,0.505-0.662c0.158-0.223,0.323-0.452,0.475-0.686c0.15-0.233,0.301-0.471,0.444-0.712
				c0.143-0.236,0.278-0.485,0.421-0.733c0.136-0.249,0.264-0.497,0.385-0.757c0.12-0.257,0.24-0.517,0.354-0.78
				c0.105-0.263,0.211-0.53,0.309-0.802c0.098-0.274,0.188-0.55,0.271-0.828c0.09-0.282,0.158-0.568,0.226-0.854
				c0.068-0.29,0.121-0.584,0.174-0.882c0.045-0.297,0.082-0.602,0.112-0.907c0.022-0.309,0.045-0.621,0.053-0.938
				c0.016-0.617,0-1.216-0.053-1.8C-319.421,690.284-319.496,689.716-319.609,689.162z M-194.113,711.151
				c-0.083-0.572-0.195-1.138-0.323-1.694c-0.136-0.554-0.294-1.1-0.482-1.635c-0.181-0.534-0.399-1.062-0.633-1.577
				c-0.24-0.516-0.497-1.021-0.768-1.503c-0.279-0.485-0.572-0.956-0.889-1.415c-0.309-0.452-0.641-0.896-0.994-1.318
				c-0.354-0.429-0.723-0.84-1.107-1.238c-0.392-0.396-0.798-0.772-1.22-1.138c-0.422-0.357-0.858-0.696-1.311-1.021
				c-0.451-0.323-0.911-0.632-1.4-0.918c-0.475-0.286-0.972-0.558-1.491-0.806c-0.504-0.253-1.023-0.479-1.559-0.686
				c-0.527-0.203-1.062-0.384-1.604-0.542c-0.55-0.154-1.1-0.286-1.657-0.399c-0.564-0.113-1.13-0.196-1.709-0.264
				c0.112-0.211,0.226-0.422,0.331-0.625s0.211-0.403,0.316-0.603c0.098-0.192,0.203-0.384,0.301-0.568s0.196-0.369,0.286-0.55
				c0.099-0.177,0.188-0.357,0.286-0.535c0.091-0.177,0.188-0.35,0.279-0.526c0.098-0.177,0.181-0.347,0.278-0.52
				c0.09-0.17,0.188-0.343,0.271-0.513c0.098-0.169,0.188-0.343,0.278-0.512c0.098-0.173,0.188-0.351,0.286-0.523
				c0.09-0.173,0.188-0.354,0.286-0.527c0.098-0.181,0.188-0.361,0.286-0.542s0.195-0.369,0.301-0.558
				c0.099-0.188,0.204-0.384,0.316-0.583c0.105-0.2,0.219-0.403,0.332-0.614c0.105-0.211,0.226-0.422,0.339-0.64
				c0.12-0.219,0.248-0.444,0.368-0.674c0.129-0.233,0.257-0.471,0.385-0.712c0.135-0.245,0.271-0.497,0.414-0.753
				c0.136-0.256,0.278-0.52,0.422-0.791c0.15-0.271,0.301-0.55,0.459-0.844c0.158-0.293,0.324-0.595,0.489-0.911
				c0.166-0.312,0.339-0.632,0.52-0.971c0.181-0.336,0.369-0.682,0.558-1.039c0.015-0.016,0.03-0.03,0.038-0.053
				c0.007-0.023,0.022-0.053,0.029-0.087c0.008-0.034,0.016-0.071,0.03-0.117c0.016-0.045,0.022-0.094,0.03-0.146
				c0.015-0.057,0.022-0.109,0.022-0.154c0.008-0.045,0.016-0.091,0.022-0.128c0-0.038,0.008-0.075,0.008-0.105v-0.079
				c-0.008-0.132-0.038-0.249-0.105-0.351c-0.061-0.098-0.15-0.181-0.264-0.248c-0.12-0.068-0.271-0.113-0.444-0.15
				c-0.173-0.03-0.376-0.046-0.603-0.046h-10.075c-0.151,0-0.294,0.008-0.422,0.022c-0.136,0.016-0.256,0.042-0.377,0.076
				c-0.112,0.033-0.226,0.075-0.323,0.128c-0.105,0.045-0.196,0.105-0.286,0.173c-0.091,0.067-0.174,0.136-0.249,0.219
				c-0.075,0.075-0.15,0.165-0.233,0.26c-0.067,0.094-0.143,0.191-0.211,0.301c-0.067,0.109-0.128,0.223-0.188,0.343
				c-0.534,1.002-1.054,1.966-1.559,2.884c-0.497,0.927-0.979,1.815-1.431,2.658c-0.459,0.852-0.896,1.665-1.311,2.433
				c-0.414,0.775-0.812,1.51-1.182,2.207c-0.377,0.696-0.73,1.362-1.077,1.999c-0.339,0.637-0.67,1.238-0.979,1.818
				c-0.315,0.576-0.602,1.122-0.881,1.642c-0.278,0.516-0.542,1.002-0.79,1.461c-0.241,0.456-0.475,0.885-0.693,1.296
				c-0.226,0.398-0.429,0.783-0.617,1.137c-0.196,0.354-0.369,0.686-0.535,0.986c-0.165,0.305-0.316,0.584-0.451,0.836
				c-0.144,0.249-0.264,0.485-0.385,0.708c-0.12,0.211-0.233,0.418-0.331,0.603c-0.105,0.185-0.195,0.354-0.278,0.504
				c-0.091,0.151-0.158,0.287-0.227,0.407c-0.067,0.116-0.128,0.226-0.181,0.32c-0.053,0.094-0.098,0.181-0.135,0.252
				c-0.046,0.067-0.076,0.128-0.105,0.173c-0.023,0.053-0.046,0.091-0.061,0.113c-0.016,0.022-0.03,0.045-0.038,0.064
				c-0.015,0.019-0.029,0.037-0.037,0.049c-0.008,0.015-0.022,0.029-0.03,0.037c0,0.012-0.015,0.022-0.015,0.026
				c-0.369,0.667-0.686,1.345-0.957,2.045c-0.271,0.692-0.497,1.408-0.67,2.139s-0.294,1.472-0.377,2.232
				c-0.075,0.765-0.098,1.54-0.082,2.331c0,0.105,0.007,0.207,0.015,0.309c0,0.105,0.008,0.211,0.015,0.309
				c0,0.105,0.008,0.211,0.016,0.316c0.007,0.105,0.015,0.207,0.022,0.312c0.015,0.102,0.022,0.211,0.03,0.312
				c0.015,0.105,0.022,0.211,0.03,0.316c0.015,0.102,0.022,0.207,0.037,0.309c0.016,0.105,0.03,0.207,0.045,0.309
				c0.076,0.595,0.181,1.183,0.31,1.755c0.128,0.572,0.278,1.13,0.451,1.68c0.181,0.55,0.385,1.088,0.618,1.611
				c0.233,0.527,0.497,1.039,0.775,1.544c0.278,0.496,0.58,0.979,0.903,1.445c0.324,0.467,0.663,0.911,1.024,1.348
				c0.361,0.43,0.738,0.844,1.137,1.235c0.399,0.399,0.813,0.775,1.25,1.138c0.438,0.361,0.889,0.7,1.355,1.02
				c0.468,0.324,0.941,0.622,1.438,0.904c0.497,0.278,1.01,0.538,1.529,0.779s1.062,0.459,1.619,0.659
				c0.549,0.199,1.106,0.372,1.679,0.522c0.565,0.147,1.145,0.271,1.732,0.373c0.58,0.102,1.175,0.177,1.77,0.223
				c0.603,0.053,1.212,0.075,1.822,0.075c0.67,0,1.325-0.026,1.966-0.091c0.64-0.06,1.272-0.15,1.89-0.271
				c0.618-0.121,1.228-0.271,1.822-0.452c0.596-0.181,1.183-0.396,1.755-0.64c0.564-0.241,1.122-0.505,1.657-0.791
				c0.534-0.286,1.046-0.595,1.536-0.927c0.497-0.331,0.971-0.682,1.423-1.054c0.452-0.377,0.889-0.772,1.303-1.19
				s0.798-0.854,1.167-1.31c0.361-0.452,0.7-0.927,1.024-1.412c0.316-0.493,0.603-0.998,0.881-1.525
				c0.264-0.523,0.513-1.065,0.738-1.626c0.219-0.562,0.414-1.134,0.572-1.714c0.15-0.576,0.278-1.171,0.377-1.77
				c0.098-0.599,0.158-1.205,0.195-1.826c0.03-0.617,0.03-1.242,0-1.883C-193.985,712.311-194.038,711.728-194.113,711.151z
				 M-206.953,713.723c-0.007,0.229-0.022,0.459-0.053,0.682c-0.029,0.226-0.067,0.444-0.112,0.655
				c-0.038,0.218-0.098,0.425-0.158,0.633c-0.068,0.203-0.144,0.398-0.226,0.595c-0.076,0.188-0.158,0.369-0.257,0.55
				c-0.098,0.181-0.195,0.35-0.301,0.512c-0.113,0.166-0.226,0.324-0.354,0.475c-0.128,0.154-0.256,0.297-0.392,0.429
				c-0.143,0.14-0.293,0.264-0.443,0.385c-0.158,0.116-0.324,0.226-0.497,0.323c-0.166,0.105-0.347,0.196-0.535,0.279
				c-0.188,0.09-0.384,0.157-0.587,0.226c-0.196,0.063-0.399,0.113-0.618,0.158c-0.211,0.045-0.422,0.075-0.647,0.098
				s-0.459,0.03-0.692,0.03s-0.467-0.008-0.693-0.03c-0.226-0.022-0.444-0.053-0.662-0.098c-0.211-0.045-0.414-0.095-0.618-0.158
				c-0.203-0.068-0.398-0.136-0.587-0.226c-0.196-0.083-0.377-0.174-0.558-0.279c-0.173-0.098-0.346-0.207-0.512-0.323
				c-0.166-0.121-0.324-0.245-0.475-0.385c-0.15-0.132-0.294-0.274-0.437-0.429c-0.136-0.15-0.271-0.309-0.392-0.475
				c-0.128-0.162-0.241-0.331-0.347-0.512c-0.113-0.181-0.219-0.361-0.309-0.55c-0.098-0.196-0.181-0.392-0.264-0.595
				c-0.075-0.208-0.15-0.415-0.203-0.633c-0.068-0.211-0.113-0.43-0.158-0.655c-0.045-0.223-0.075-0.452-0.105-0.682
				s-0.038-0.471-0.053-0.708c-0.008-0.237,0-0.463,0.008-0.692c0.007-0.227,0.03-0.448,0.06-0.667
				c0.03-0.218,0.068-0.437,0.105-0.647c0.053-0.207,0.113-0.414,0.174-0.617c0.067-0.203,0.143-0.407,0.226-0.595
				c0.075-0.188,0.166-0.377,0.264-0.55c0.098-0.181,0.203-0.354,0.316-0.52c0.105-0.166,0.226-0.324,0.354-0.475
				c0.121-0.15,0.264-0.302,0.399-0.437c0.15-0.136,0.294-0.264,0.452-0.385c0.15-0.12,0.315-0.233,0.489-0.339
				c0.165-0.105,0.347-0.203,0.52-0.293c0.188-0.091,0.376-0.166,0.572-0.234c0.195-0.067,0.399-0.124,0.61-0.169
				c0.203-0.041,0.421-0.079,0.64-0.102c0.226-0.022,0.452-0.03,0.686-0.03c0.241,0,0.467,0.008,0.692,0.03
				c0.227,0.022,0.444,0.061,0.655,0.102c0.219,0.045,0.422,0.102,0.625,0.169c0.203,0.068,0.399,0.144,0.595,0.234
				c0.196,0.09,0.377,0.188,0.558,0.293s0.354,0.219,0.512,0.339c0.166,0.121,0.324,0.249,0.475,0.385
				c0.15,0.135,0.286,0.286,0.422,0.437c0.143,0.15,0.264,0.309,0.384,0.475c0.128,0.165,0.241,0.339,0.347,0.52
				c0.105,0.173,0.211,0.361,0.309,0.55c0.091,0.188,0.181,0.392,0.264,0.595c0.075,0.203,0.15,0.41,0.211,0.617
				c0.067,0.211,0.12,0.43,0.158,0.647c0.045,0.219,0.083,0.44,0.112,0.667c0.03,0.229,0.046,0.455,0.053,0.692
				C-206.945,713.252-206.938,713.493-206.953,713.723z M-239.131,678.897c-0.022-0.105-0.053-0.203-0.098-0.293
				c-0.037-0.095-0.098-0.181-0.158-0.264c-0.067-0.083-0.143-0.158-0.226-0.227c-0.083-0.067-0.174-0.128-0.264-0.181
				c-0.091-0.053-0.188-0.098-0.286-0.132c-0.105-0.033-0.211-0.06-0.324-0.079c-0.105-0.015-0.218-0.022-0.339-0.022h-8.013
				c-0.233,0-0.451,0-0.662,0.008c-0.211,0-0.414,0.008-0.603,0.015c-0.188,0.012-0.361,0.023-0.534,0.038
				c-0.166,0.008-0.324,0.022-0.468,0.045c-0.15,0.016-0.301,0.046-0.451,0.083c-0.151,0.038-0.294,0.083-0.444,0.14
				s-0.302,0.124-0.452,0.207c-0.15,0.075-0.301,0.162-0.459,0.26l-4.797,2.323c-0.264,0.136-0.49,0.286-0.686,0.444
				c-0.196,0.158-0.354,0.331-0.482,0.512s-0.226,0.369-0.286,0.568c-0.067,0.2-0.098,0.411-0.098,0.633l0.075,7.512
				c0,0.113,0.008,0.219,0.03,0.324c0.016,0.105,0.038,0.203,0.075,0.301c0.03,0.098,0.068,0.188,0.121,0.278
				c0.045,0.091,0.098,0.181,0.165,0.264c0.061,0.075,0.136,0.15,0.203,0.211c0.083,0.061,0.166,0.113,0.249,0.154
				c0.09,0.042,0.181,0.072,0.286,0.095c0.098,0.015,0.211,0.026,0.316,0.026c0.015-0.02,0.03-0.042,0.045-0.053
				c0.008-0.02,0.03-0.03,0.053-0.042c0.03-0.007,0.061-0.015,0.098-0.022h0.136c0.03,0,0.045,0,0.067-0.004
				c0.03-0.004,0.046-0.007,0.068-0.011c0.03-0.008,0.053-0.012,0.067-0.02c0.03-0.007,0.053-0.015,0.075-0.022l4.865-2.391
				l-0.075,39.569c0,0.09,0.007,0.177,0.022,0.267c0.015,0.091,0.037,0.182,0.075,0.268c0.022,0.091,0.067,0.177,0.105,0.26
				c0.045,0.083,0.098,0.17,0.15,0.253c0.061,0.082,0.136,0.154,0.219,0.214c0.083,0.061,0.181,0.117,0.278,0.158
				c0.105,0.038,0.226,0.068,0.354,0.091c0.135,0.022,0.271,0.03,0.429,0.03h10.393c0.286,0,0.534-0.03,0.745-0.099
				c0.219-0.067,0.392-0.173,0.535-0.305c0.135-0.136,0.24-0.305,0.309-0.508c0.067-0.2,0.098-0.438,0.09-0.701l-0.459-49.852
				C-239.093,679.108-239.108,678.996-239.131,678.897z M-261.955,700.156c-0.091-0.603-0.196-1.193-0.332-1.784
				c-0.12-0.588-0.271-1.171-0.437-1.747c-0.173-0.58-0.354-1.145-0.558-1.706c-0.203-0.554-0.422-1.104-0.655-1.642
				s-0.481-1.065-0.745-1.581c-0.271-0.517-0.55-1.028-0.851-1.525c-0.294-0.497-0.603-0.979-0.935-1.457
				c-0.323-0.471-0.67-0.938-1.023-1.39c-0.354-0.451-0.73-0.893-1.107-1.321c-0.384-0.426-0.791-0.848-1.205-1.254
				s-0.843-0.798-1.272-1.175c-0.437-0.377-0.881-0.738-1.348-1.084c-0.452-0.347-0.927-0.678-1.408-0.994
				c-0.482-0.316-0.972-0.618-1.477-0.904c-0.497-0.286-1.017-0.557-1.536-0.81c-0.52-0.252-1.054-0.493-1.596-0.711
				c-0.535-0.227-1.085-0.434-1.649-0.625c-0.558-0.188-1.13-0.361-1.702-0.527c-0.58-0.154-1.167-0.294-1.755-0.41
				c-0.595-0.117-1.182-0.219-1.784-0.298s-1.205-0.136-1.815-0.177c-0.609-0.042-1.228-0.061-1.845-0.061
				c-0.625,0-1.25,0.019-1.86,0.061c-0.617,0.041-1.228,0.098-1.822,0.177c-0.603,0.079-1.204,0.181-1.792,0.298
				c-0.587,0.116-1.175,0.256-1.755,0.41c-0.579,0.166-1.152,0.339-1.709,0.527c-0.558,0.191-1.114,0.398-1.657,0.625
				c-0.542,0.218-1.076,0.459-1.604,0.711c-0.527,0.253-1.039,0.523-1.544,0.81c-0.512,0.286-1.009,0.588-1.491,0.904
				c-0.489,0.316-0.964,0.647-1.423,0.994c-0.467,0.346-0.919,0.707-1.363,1.084s-0.873,0.769-1.295,1.175s-0.829,0.828-1.22,1.254
				c-0.393,0.429-0.776,0.87-1.138,1.321c-0.369,0.452-0.715,0.919-1.054,1.39c-0.34,0.479-0.655,0.96-0.972,1.457
				c-0.309,0.497-0.603,1.009-0.874,1.525c-0.278,0.516-0.534,1.043-0.775,1.581s-0.467,1.088-0.678,1.642
				c-0.203,0.562-0.399,1.126-0.572,1.706c-0.181,0.576-0.331,1.159-0.467,1.747c-0.136,0.591-0.249,1.182-0.347,1.784
				s-0.173,1.209-0.233,1.822c-0.053,0.61-0.083,1.231-0.098,1.856c-0.016,0.629-0.008,1.254,0.015,1.871
				c0.022,0.622,0.068,1.235,0.136,1.846c0.067,0.605,0.15,1.204,0.264,1.804c0.113,0.595,0.233,1.186,0.384,1.766
				c0.15,0.587,0.316,1.163,0.497,1.731c0.188,0.565,0.392,1.122,0.61,1.668c0.218,0.547,0.451,1.089,0.715,1.616
				c0.257,0.526,0.527,1.05,0.821,1.559c0.286,0.512,0.595,1.017,0.919,1.502c0.323,0.493,0.655,0.968,1.017,1.435
				c0.346,0.467,0.715,0.923,1.1,1.367c0.384,0.448,0.783,0.877,1.197,1.307c0.414,0.421,0.836,0.828,1.272,1.22
				c0.444,0.392,0.896,0.775,1.363,1.137c0.459,0.365,0.934,0.716,1.423,1.051s0.986,0.655,1.498,0.96
				c0.513,0.306,1.032,0.595,1.566,0.866c0.535,0.271,1.069,0.523,1.627,0.761c0.55,0.233,1.114,0.452,1.687,0.655
				c0.572,0.195,1.152,0.384,1.747,0.55c0.596,0.165,1.197,0.309,1.808,0.433c0.603,0.124,1.22,0.229,1.83,0.309
				c0.617,0.083,1.25,0.146,1.883,0.188c0.632,0.041,1.272,0.063,1.912,0.063c0.648,0,1.28-0.022,1.913-0.063
				c0.633-0.042,1.258-0.105,1.875-0.188c0.625-0.079,1.235-0.185,1.845-0.309c0.61-0.124,1.213-0.268,1.815-0.433
				c0.595-0.166,1.189-0.354,1.762-0.55c0.58-0.203,1.145-0.422,1.702-0.655c0.558-0.237,1.107-0.489,1.642-0.761
				c0.542-0.271,1.069-0.561,1.589-0.866c0.513-0.305,1.017-0.625,1.514-0.96c0.489-0.335,0.979-0.686,1.446-1.051
				c0.467-0.361,0.926-0.745,1.37-1.137s0.874-0.799,1.295-1.22c0.422-0.43,0.829-0.858,1.221-1.307
				c0.384-0.444,0.761-0.9,1.122-1.367s0.7-0.941,1.031-1.435c0.324-0.485,0.633-0.99,0.934-1.502
				c0.294-0.509,0.572-1.032,0.836-1.559c0.264-0.527,0.513-1.069,0.738-1.616c0.233-0.546,0.444-1.103,0.64-1.668
				c0.196-0.568,0.377-1.145,0.535-1.731c0.158-0.58,0.301-1.171,0.422-1.766c0.12-0.6,0.218-1.198,0.293-1.804
				c0.083-0.61,0.136-1.224,0.174-1.846c0.03-0.617,0.053-1.242,0.045-1.871c0-0.625-0.03-1.246-0.075-1.856
				C-261.805,701.365-261.873,700.759-261.955,700.156z M-275.225,705.27c-0.045,0.482-0.12,0.96-0.203,1.428
				c-0.09,0.47-0.203,0.93-0.339,1.378c-0.136,0.447-0.294,0.892-0.475,1.325c-0.181,0.433-0.376,0.854-0.595,1.261
				c-0.219,0.407-0.444,0.799-0.692,1.179c-0.249,0.381-0.513,0.746-0.791,1.1c-0.286,0.351-0.588,0.689-0.896,1.013
				c-0.316,0.324-0.647,0.633-0.986,0.923c-0.347,0.29-0.708,0.568-1.084,0.82c-0.369,0.26-0.761,0.497-1.168,0.72
				c-0.406,0.222-0.82,0.425-1.257,0.617c-0.43,0.181-0.874,0.347-1.326,0.486c-0.443,0.139-0.903,0.26-1.37,0.35
				c-0.459,0.098-0.934,0.166-1.416,0.211c-0.481,0.049-0.971,0.071-1.468,0.071s-0.994-0.022-1.477-0.071
				c-0.481-0.045-0.956-0.113-1.423-0.211c-0.46-0.09-0.919-0.211-1.355-0.35c-0.452-0.14-0.881-0.306-1.311-0.486
				c-0.422-0.192-0.828-0.396-1.228-0.617c-0.399-0.223-0.775-0.46-1.145-0.72c-0.361-0.252-0.716-0.53-1.062-0.82
				c-0.332-0.29-0.655-0.599-0.972-0.923c-0.309-0.323-0.603-0.662-0.874-1.013c-0.278-0.354-0.534-0.719-0.768-1.1
				c-0.241-0.38-0.467-0.771-0.67-1.179c-0.211-0.406-0.392-0.828-0.565-1.261c-0.173-0.434-0.316-0.878-0.444-1.325
				c-0.128-0.448-0.226-0.908-0.309-1.378c-0.083-0.468-0.143-0.945-0.181-1.428c-0.037-0.481-0.053-0.972-0.037-1.476
				c0.007-0.489,0.037-0.976,0.09-1.454c0.045-0.478,0.12-0.948,0.219-1.411c0.098-0.464,0.211-0.923,0.354-1.371
				c0.144-0.448,0.302-0.889,0.489-1.321c0.174-0.437,0.377-0.858,0.595-1.262c0.211-0.402,0.444-0.794,0.693-1.171
				c0.248-0.376,0.52-0.738,0.798-1.092c0.279-0.347,0.58-0.682,0.896-1.002c0.316-0.323,0.647-0.625,0.986-0.911
				s0.7-0.55,1.062-0.806c0.369-0.252,0.754-0.489,1.146-0.708c0.398-0.218,0.806-0.418,1.228-0.602
				c0.421-0.185,0.858-0.347,1.295-0.482c0.437-0.144,0.889-0.256,1.348-0.347c0.459-0.098,0.927-0.165,1.4-0.211
				c0.475-0.045,0.964-0.067,1.454-0.067c0.489,0,0.971,0.022,1.438,0.067c0.474,0.046,0.94,0.113,1.393,0.211
				c0.459,0.091,0.904,0.203,1.348,0.347c0.438,0.136,0.874,0.298,1.296,0.482c0.429,0.184,0.836,0.384,1.234,0.602
				c0.392,0.219,0.776,0.456,1.146,0.708c0.368,0.256,0.723,0.52,1.062,0.806c0.331,0.286,0.662,0.588,0.972,0.911
				c0.309,0.32,0.602,0.655,0.881,1.002c0.278,0.354,0.534,0.716,0.783,1.092c0.24,0.377,0.467,0.769,0.686,1.171
				c0.21,0.403,0.406,0.825,0.587,1.262c0.181,0.433,0.331,0.873,0.467,1.321s0.249,0.907,0.339,1.371
				c0.083,0.463,0.158,0.934,0.203,1.411c0.045,0.479,0.068,0.965,0.068,1.454C-275.156,704.298-275.18,704.788-275.225,705.27z"/>
		</g>
	</g>
</g>
<path d="M442.182,541.439c-6.293-6.293-14.539-9.439-22.793-9.439c-8.246,0-16.492,3.146-22.785,9.439l-48.428,48.427
	c-0.934,0.933-1.654,1.991-2.453,3.002L170.084,768.516c-0.951,0.953-1.693,2.078-2.193,3.329l-20.523,51.708
	c-0.184,0.472-0.145,0.963-0.26,1.443c-0.174,0.731-0.395,1.434-0.395,2.184c0,0.789,0.23,1.53,0.414,2.281
	c0.105,0.452,0.066,0.914,0.24,1.356c0.02,0.048,0.068,0.087,0.086,0.145c0.098,0.231,0.27,0.423,0.385,0.645
	c0.414,0.827,0.914,1.578,1.521,2.232c0.25,0.269,0.529,0.491,0.809,0.741c0.664,0.567,1.375,1.029,2.154,1.404
	c0.213,0.096,0.355,0.279,0.568,0.365c0.115,0.049,0.24,0.029,0.355,0.068c1.039,0.375,2.127,0.615,3.242,0.615
	c0.01,0,0.029,0.01,0.039,0.01h0.01c0.01,0,0.02-0.01,0.029-0.01c1.125,0,2.203-0.24,3.242-0.615c0.115-0.039,0.24-0.02,0.355-0.068
	l51.729-20.514c1.25-0.5,2.385-1.241,3.328-2.193l176.744-176.735c0.588-0.51,1.232-0.904,1.791-1.462l48.426-48.428
	C454.777,574.423,454.768,554.024,442.182,541.439z M202.732,798.267l-0.713,0.278l-17.213-15.904l0.654-1.636l155.836-155.836
	c1.568,3.724,3.838,7.235,6.879,10.276c3.08,3.078,6.639,5.388,10.43,6.956L202.732,798.267z M428.25,573.086l-24.824,24.824
	c-0.309,0.24-0.684,0.355-0.973,0.645l-23.611,23.611c-2.242,1.857-4.938,3.012-7.871,3.012c-3.35,0-6.494-1.299-8.861-3.666
	c-2.367-2.366-3.666-5.513-3.666-8.852c0-2.665,1.029-5.08,2.549-7.197l24.189-24.189c0.48-0.48,0.723-1.078,1.078-1.626
	l24.285-24.276c2.357-2.367,5.504-3.666,8.844-3.666c3.348,0,6.494,1.299,8.861,3.666
	C433.127,560.26,433.127,568.197,428.25,573.086z M374.002,684.526c-5.438,0-9.854,4.407-9.854,9.853v44.78l-0.01,187.396h-87.857
	c-5.436,0-9.854,4.407-9.854,9.854v87.887H80.092V923.342h-0.01V619.367h219.109c5.445,0,9.852-4.407,9.852-9.854
	c0-5.445-4.406-9.853-9.852-9.853H169.199c-0.201-0.01-0.395-0.01-0.596,0H70.229c-5.445,0-9.854,4.407-9.854,9.853v339.769
	c0,0.019,0.01,0.028,0.01,0.048v84.816c0,5.447,4.408,9.854,9.854,9.854h205.957l0.135-0.135c2.174-0.23,4.301-1.029,5.965-2.694
	l16.877-16.876l64.977-64.977l16.906-16.906c1.664-1.664,2.463-3.791,2.684-5.956l0.105-0.106v-0.432c0.02-0.318,0.02-0.626,0-0.943
	V694.331C383.816,688.904,379.428,684.526,374.002,684.526z M286.135,1009.467v-63.206h63.205L286.135,1009.467z"/>
</svg>
